<svg xmlns="http://www.w3.org/2000/svg" viewBox="0 0 199.03 188.32"><defs><style>.cls-1{fill:#52525b;}</style></defs><g id="Layer_2" data-name="Layer 2"><g id="Background"><path class="cls-1" d="M8.51,184.07a4.26,4.26,0,1,1-4.26-4.25A4.25,4.25,0,0,1,8.51,184.07Z"/><path class="cls-1" d="M35.72,184.07a4.25,4.25,0,1,1-4.25-4.25A4.25,4.25,0,0,1,35.72,184.07Z"/><path class="cls-1" d="M62.94,184.07a4.26,4.26,0,1,1-4.25-4.25A4.25,4.25,0,0,1,62.94,184.07Z"/><path class="cls-1" d="M90.16,184.07a4.26,4.26,0,1,1-4.26-4.25A4.25,4.25,0,0,1,90.16,184.07Z"/><path class="cls-1" d="M117.37,184.07a4.25,4.25,0,1,1-4.25-4.25A4.25,4.25,0,0,1,117.37,184.07Z"/><path class="cls-1" d="M144.59,184.07a4.25,4.25,0,1,1-4.25-4.25A4.25,4.25,0,0,1,144.59,184.07Z"/><path class="cls-1" d="M171.81,184.07a4.26,4.26,0,1,1-4.25-4.25A4.25,4.25,0,0,1,171.81,184.07Z"/><path class="cls-1" d="M199,184.07a4.26,4.26,0,1,1-4.26-4.25A4.25,4.25,0,0,1,199,184.07Z"/><path class="cls-1" d="M8.51,158.38a4.26,4.26,0,1,1-4.26-4.25A4.25,4.25,0,0,1,8.51,158.38Z"/><path class="cls-1" d="M35.72,158.38a4.25,4.25,0,1,1-4.25-4.25A4.25,4.25,0,0,1,35.72,158.38Z"/><path class="cls-1" d="M62.94,158.38a4.26,4.26,0,1,1-4.25-4.25A4.25,4.25,0,0,1,62.94,158.38Z"/><path class="cls-1" d="M90.16,158.38a4.26,4.26,0,1,1-4.26-4.25A4.25,4.25,0,0,1,90.16,158.38Z"/><path class="cls-1" d="M117.37,158.38a4.25,4.25,0,1,1-4.25-4.25A4.25,4.25,0,0,1,117.37,158.38Z"/><path class="cls-1" d="M144.59,158.38a4.25,4.25,0,1,1-4.25-4.25A4.25,4.25,0,0,1,144.59,158.38Z"/><path class="cls-1" d="M171.81,158.38a4.26,4.26,0,1,1-4.25-4.25A4.25,4.25,0,0,1,171.81,158.38Z"/><path class="cls-1" d="M199,158.38a4.26,4.26,0,1,1-4.26-4.25A4.25,4.25,0,0,1,199,158.38Z"/><path class="cls-1" d="M8.51,132.69a4.26,4.26,0,1,1-4.26-4.25A4.26,4.26,0,0,1,8.51,132.69Z"/><path class="cls-1" d="M35.72,132.69a4.25,4.25,0,1,1-4.25-4.25A4.25,4.25,0,0,1,35.72,132.69Z"/><path class="cls-1" d="M62.94,132.69a4.26,4.26,0,1,1-4.25-4.25A4.25,4.25,0,0,1,62.94,132.69Z"/><path class="cls-1" d="M90.16,132.69a4.26,4.26,0,1,1-4.26-4.25A4.26,4.26,0,0,1,90.16,132.69Z"/><path class="cls-1" d="M117.37,132.69a4.25,4.25,0,1,1-4.25-4.25A4.25,4.25,0,0,1,117.37,132.69Z"/><path class="cls-1" d="M144.59,132.69a4.25,4.25,0,1,1-4.25-4.25A4.25,4.25,0,0,1,144.59,132.69Z"/><path class="cls-1" d="M171.81,132.69a4.26,4.26,0,1,1-4.25-4.25A4.26,4.26,0,0,1,171.81,132.69Z"/><path class="cls-1" d="M199,132.69a4.26,4.26,0,1,1-4.26-4.25A4.26,4.26,0,0,1,199,132.69Z"/><path class="cls-1" d="M8.51,107a4.26,4.26,0,1,1-4.26-4.25A4.26,4.26,0,0,1,8.51,107Z"/><path class="cls-1" d="M35.72,107a4.25,4.25,0,1,1-4.25-4.25A4.25,4.25,0,0,1,35.72,107Z"/><path class="cls-1" d="M62.94,107a4.26,4.26,0,1,1-4.25-4.25A4.25,4.25,0,0,1,62.94,107Z"/><path class="cls-1" d="M90.16,107a4.26,4.26,0,1,1-4.26-4.25A4.26,4.26,0,0,1,90.16,107Z"/><path class="cls-1" d="M117.37,107a4.25,4.25,0,1,1-4.25-4.25A4.25,4.25,0,0,1,117.37,107Z"/><path class="cls-1" d="M144.59,107a4.25,4.25,0,1,1-4.25-4.25A4.25,4.25,0,0,1,144.59,107Z"/><path class="cls-1" d="M171.81,107a4.26,4.26,0,1,1-4.25-4.25A4.26,4.26,0,0,1,171.81,107Z"/><path class="cls-1" d="M199,107a4.26,4.26,0,1,1-4.26-4.25A4.26,4.26,0,0,1,199,107Z"/><path class="cls-1" d="M8.51,81.32a4.26,4.26,0,1,1-4.26-4.26A4.25,4.25,0,0,1,8.51,81.32Z"/><path class="cls-1" d="M35.72,81.32a4.25,4.25,0,1,1-4.25-4.26A4.25,4.25,0,0,1,35.72,81.32Z"/><path class="cls-1" d="M62.94,81.32a4.26,4.26,0,1,1-4.25-4.26A4.25,4.25,0,0,1,62.94,81.32Z"/><path class="cls-1" d="M90.16,81.32a4.26,4.26,0,1,1-4.26-4.26A4.25,4.25,0,0,1,90.16,81.32Z"/><path class="cls-1" d="M117.37,81.32a4.25,4.25,0,1,1-4.25-4.26A4.25,4.25,0,0,1,117.37,81.32Z"/><path class="cls-1" d="M144.59,81.32a4.25,4.25,0,1,1-4.25-4.26A4.25,4.25,0,0,1,144.59,81.32Z"/><path class="cls-1" d="M171.81,81.32a4.26,4.26,0,1,1-4.25-4.26A4.25,4.25,0,0,1,171.81,81.32Z"/><path class="cls-1" d="M199,81.32a4.26,4.26,0,1,1-4.26-4.26A4.25,4.25,0,0,1,199,81.32Z"/><path class="cls-1" d="M8.51,55.63a4.26,4.26,0,1,1-4.26-4.25A4.25,4.25,0,0,1,8.51,55.63Z"/><path class="cls-1" d="M35.72,55.63a4.25,4.25,0,1,1-4.25-4.25A4.25,4.25,0,0,1,35.72,55.63Z"/><path class="cls-1" d="M62.94,55.63a4.26,4.26,0,1,1-4.25-4.25A4.25,4.25,0,0,1,62.94,55.63Z"/><path class="cls-1" d="M90.16,55.63a4.26,4.26,0,1,1-4.26-4.25A4.25,4.25,0,0,1,90.16,55.63Z"/><path class="cls-1" d="M117.37,55.63a4.25,4.25,0,1,1-4.25-4.25A4.25,4.25,0,0,1,117.37,55.63Z"/><path class="cls-1" d="M144.59,55.63a4.25,4.25,0,1,1-4.25-4.25A4.25,4.25,0,0,1,144.59,55.63Z"/><path class="cls-1" d="M171.81,55.63a4.26,4.26,0,1,1-4.25-4.25A4.25,4.25,0,0,1,171.81,55.63Z"/><path class="cls-1" d="M199,55.63a4.26,4.26,0,1,1-4.26-4.25A4.25,4.25,0,0,1,199,55.63Z"/><path class="cls-1" d="M8.51,29.94a4.26,4.26,0,1,1-4.26-4.25A4.25,4.25,0,0,1,8.51,29.94Z"/><path class="cls-1" d="M35.72,29.94a4.25,4.25,0,1,1-4.25-4.25A4.25,4.25,0,0,1,35.72,29.94Z"/><path class="cls-1" d="M62.94,29.94a4.26,4.26,0,1,1-4.25-4.25A4.25,4.25,0,0,1,62.94,29.94Z"/><path class="cls-1" d="M90.16,29.94a4.26,4.26,0,1,1-4.26-4.25A4.25,4.25,0,0,1,90.16,29.94Z"/><path class="cls-1" d="M117.37,29.94a4.25,4.25,0,1,1-4.25-4.25A4.25,4.25,0,0,1,117.37,29.94Z"/><path class="cls-1" d="M144.59,29.94a4.25,4.25,0,1,1-4.25-4.25A4.25,4.25,0,0,1,144.59,29.94Z"/><path class="cls-1" d="M171.81,29.94a4.26,4.26,0,1,1-4.25-4.25A4.25,4.25,0,0,1,171.81,29.94Z"/><path class="cls-1" d="M199,29.94a4.26,4.26,0,1,1-4.26-4.25A4.25,4.25,0,0,1,199,29.94Z"/><path class="cls-1" d="M8.51,4.25A4.26,4.26,0,1,1,4.25,0,4.26,4.26,0,0,1,8.51,4.25Z"/><path class="cls-1" d="M35.72,4.25A4.25,4.25,0,1,1,31.47,0,4.25,4.25,0,0,1,35.72,4.25Z"/><path class="cls-1" d="M62.94,4.25A4.26,4.26,0,1,1,58.69,0,4.25,4.25,0,0,1,62.94,4.25Z"/><path class="cls-1" d="M90.16,4.25A4.26,4.26,0,1,1,85.9,0,4.26,4.26,0,0,1,90.16,4.25Z"/><path class="cls-1" d="M117.37,4.25A4.25,4.25,0,1,1,113.12,0,4.25,4.25,0,0,1,117.37,4.25Z"/><path class="cls-1" d="M144.59,4.25A4.25,4.25,0,1,1,140.34,0,4.25,4.25,0,0,1,144.59,4.25Z"/><path class="cls-1" d="M171.81,4.25A4.26,4.26,0,1,1,167.56,0,4.26,4.26,0,0,1,171.81,4.25Z"/><path class="cls-1" d="M199,4.25A4.26,4.26,0,1,1,194.77,0,4.26,4.26,0,0,1,199,4.25Z"/></g></g></svg>