<svg xmlns="http://www.w3.org/2000/svg" viewBox="0 0 485.87 485.87"><defs><style>.cls-1{fill:#e2e8f0;}.cls-2{fill:#fff;}</style></defs><g id="Layer_2" data-name="Layer 2"><g id="Background"><path class="cls-1" d="M347.35,410.8a40.54,40.54,0,1,1-33.67-46.41A40.59,40.59,0,0,1,347.35,410.8Zm-78.79-12.53a39.24,39.24,0,1,0,44.92-32.59A39.28,39.28,0,0,0,268.56,398.27Z"/><path class="cls-2" d="M242.94,485.87C109,485.87,0,376.89,0,242.93S109,0,242.94,0,485.87,109,485.87,242.93,376.89,485.87,242.94,485.87Zm0-482.51C110.84,3.36,3.36,110.84,3.36,242.93S110.84,482.5,242.94,482.5,482.51,375,482.51,242.93,375,3.36,242.94,3.36Z"/><circle class="cls-1" cx="80.38" cy="418.53" r="23.94"/></g></g></svg>