<svg xmlns="http://www.w3.org/2000/svg" viewBox="0 0 246.81 316.43"><defs><style>.cls-1{fill:#52525b;}</style></defs><g id="Layer_2" data-name="Layer 2"><g id="Background"><circle class="cls-1" cx="3.77" cy="3.77" r="3.77"/><circle class="cls-1" cx="43.65" cy="3.77" r="3.77"/><path class="cls-1" d="M87.29,3.77A3.77,3.77,0,1,1,83.53,0,3.76,3.76,0,0,1,87.29,3.77Z"/><path class="cls-1" d="M127.17,3.77A3.77,3.77,0,1,1,123.41,0,3.76,3.76,0,0,1,127.17,3.77Z"/><circle class="cls-1" cx="163.29" cy="3.77" r="3.77"/><circle class="cls-1" cx="203.17" cy="3.77" r="3.77"/><path class="cls-1" d="M246.81,3.77A3.77,3.77,0,1,1,243.05,0,3.76,3.76,0,0,1,246.81,3.77Z"/><circle class="cls-1" cx="3.77" cy="47.89" r="3.77"/><circle class="cls-1" cx="43.65" cy="47.89" r="3.77"/><path class="cls-1" d="M87.29,47.89a3.77,3.77,0,1,1-3.76-3.76A3.76,3.76,0,0,1,87.29,47.89Z"/><path class="cls-1" d="M127.17,47.89a3.77,3.77,0,1,1-3.76-3.76A3.76,3.76,0,0,1,127.17,47.89Z"/><circle class="cls-1" cx="163.29" cy="47.89" r="3.77"/><circle class="cls-1" cx="203.17" cy="47.89" r="3.77"/><path class="cls-1" d="M246.81,47.89a3.77,3.77,0,1,1-3.76-3.76A3.76,3.76,0,0,1,246.81,47.89Z"/><path class="cls-1" d="M7.53,92a3.77,3.77,0,1,1-3.76-3.76A3.76,3.76,0,0,1,7.53,92Z"/><path class="cls-1" d="M47.41,92a3.77,3.77,0,1,1-3.76-3.76A3.76,3.76,0,0,1,47.41,92Z"/><path class="cls-1" d="M87.29,92a3.77,3.77,0,1,1-3.76-3.76A3.76,3.76,0,0,1,87.29,92Z"/><path class="cls-1" d="M127.17,92a3.77,3.77,0,1,1-3.76-3.76A3.76,3.76,0,0,1,127.17,92Z"/><path class="cls-1" d="M167.05,92a3.77,3.77,0,1,1-3.76-3.76A3.76,3.76,0,0,1,167.05,92Z"/><path class="cls-1" d="M206.93,92a3.77,3.77,0,1,1-3.76-3.76A3.76,3.76,0,0,1,206.93,92Z"/><path class="cls-1" d="M246.81,92a3.77,3.77,0,1,1-3.76-3.76A3.76,3.76,0,0,1,246.81,92Z"/><circle class="cls-1" cx="3.77" cy="136.15" r="3.77"/><circle class="cls-1" cx="43.65" cy="136.15" r="3.77"/><path class="cls-1" d="M87.29,136.15a3.77,3.77,0,1,1-3.76-3.76A3.76,3.76,0,0,1,87.29,136.15Z"/><path class="cls-1" d="M127.17,136.15a3.77,3.77,0,1,1-3.76-3.76A3.76,3.76,0,0,1,127.17,136.15Z"/><circle class="cls-1" cx="163.29" cy="136.15" r="3.77"/><circle class="cls-1" cx="203.17" cy="136.15" r="3.77"/><path class="cls-1" d="M246.81,136.15a3.77,3.77,0,1,1-3.76-3.76A3.76,3.76,0,0,1,246.81,136.15Z"/><path class="cls-1" d="M7.53,180.28a3.77,3.77,0,1,1-3.76-3.77A3.76,3.76,0,0,1,7.53,180.28Z"/><path class="cls-1" d="M47.41,180.28a3.77,3.77,0,1,1-3.76-3.77A3.76,3.76,0,0,1,47.41,180.28Z"/><path class="cls-1" d="M87.29,180.28a3.77,3.77,0,1,1-3.76-3.77A3.76,3.76,0,0,1,87.29,180.28Z"/><path class="cls-1" d="M127.17,180.28a3.77,3.77,0,1,1-3.76-3.77A3.76,3.76,0,0,1,127.17,180.28Z"/><path class="cls-1" d="M167.05,180.28a3.77,3.77,0,1,1-3.76-3.77A3.76,3.76,0,0,1,167.05,180.28Z"/><path class="cls-1" d="M206.93,180.28a3.77,3.77,0,1,1-3.76-3.77A3.76,3.76,0,0,1,206.93,180.28Z"/><path class="cls-1" d="M246.81,180.28a3.77,3.77,0,1,1-3.76-3.77A3.76,3.76,0,0,1,246.81,180.28Z"/><circle class="cls-1" cx="3.77" cy="224.41" r="3.77"/><circle class="cls-1" cx="43.65" cy="224.41" r="3.77"/><path class="cls-1" d="M87.29,224.41a3.77,3.77,0,1,1-3.76-3.77A3.76,3.76,0,0,1,87.29,224.41Z"/><path class="cls-1" d="M127.17,224.41a3.77,3.77,0,1,1-3.76-3.77A3.76,3.76,0,0,1,127.17,224.41Z"/><circle class="cls-1" cx="163.29" cy="224.41" r="3.77"/><circle class="cls-1" cx="203.17" cy="224.41" r="3.77"/><path class="cls-1" d="M246.81,224.41a3.77,3.77,0,1,1-3.76-3.77A3.76,3.76,0,0,1,246.81,224.41Z"/><circle class="cls-1" cx="3.77" cy="268.54" r="3.77"/><circle class="cls-1" cx="43.65" cy="268.54" r="3.77"/><path class="cls-1" d="M87.29,268.54a3.77,3.77,0,1,1-3.76-3.77A3.76,3.76,0,0,1,87.29,268.54Z"/><path class="cls-1" d="M127.17,268.54a3.77,3.77,0,1,1-3.76-3.77A3.76,3.76,0,0,1,127.17,268.54Z"/><circle class="cls-1" cx="163.29" cy="268.54" r="3.77"/><circle class="cls-1" cx="203.17" cy="268.54" r="3.77"/><path class="cls-1" d="M246.81,268.54a3.77,3.77,0,1,1-3.76-3.77A3.76,3.76,0,0,1,246.81,268.54Z"/><path class="cls-1" d="M7.53,312.67a3.77,3.77,0,1,1-3.76-3.77A3.76,3.76,0,0,1,7.53,312.67Z"/><path class="cls-1" d="M47.41,312.67a3.77,3.77,0,1,1-3.76-3.77A3.76,3.76,0,0,1,47.41,312.67Z"/><path class="cls-1" d="M87.29,312.67a3.77,3.77,0,1,1-3.76-3.77A3.76,3.76,0,0,1,87.29,312.67Z"/><path class="cls-1" d="M127.17,312.67a3.77,3.77,0,1,1-3.76-3.77A3.76,3.76,0,0,1,127.17,312.67Z"/><path class="cls-1" d="M167.05,312.67a3.77,3.77,0,1,1-3.76-3.77A3.76,3.76,0,0,1,167.05,312.67Z"/><path class="cls-1" d="M206.93,312.67a3.77,3.77,0,1,1-3.76-3.77A3.76,3.76,0,0,1,206.93,312.67Z"/><path class="cls-1" d="M246.81,312.67a3.77,3.77,0,1,1-3.76-3.77A3.76,3.76,0,0,1,246.81,312.67Z"/></g></g></svg>