<svg xmlns="http://www.w3.org/2000/svg" viewBox="0 0 367.3 227.74"><defs><style>.cls-1{fill:#e2e8f0;}</style></defs><g id="Layer_2" data-name="Layer 2"><g id="Logo"><g id="H"><path class="cls-1" d="M340,227.73a27.34,27.34,0,1,1,27.34-27.34A27.37,27.37,0,0,1,340,227.73Zm0-44.68a17.34,17.34,0,1,0,17.34,17.34A17.36,17.36,0,0,0,340,183.05Z"/><path class="cls-1" d="M340,55.07a27.35,27.35,0,0,0-5.41,54.15v9.84h0v1.75a14.3,14.3,0,0,1-14.3,14.3h-1.75v0H305.38a27.34,27.34,0,0,0-53.43,0h-19.5A21.24,21.24,0,0,0,211.2,156.4v17.19a27.38,27.38,0,1,0,8.94-.3V160.17h0v-1.75a14.3,14.3,0,0,1,14.3-14.3h1.75v0H251.5a27.35,27.35,0,0,0,54.33,0h16.4a21.25,21.25,0,0,0,21.24-21.25V109.52A27.34,27.34,0,0,0,340,55.07ZM234,200.39a17.35,17.35,0,1,1-17.35-17.34A17.37,17.37,0,0,1,234,200.39Zm44.7-42.09A17.35,17.35,0,1,1,296,141,17.36,17.36,0,0,1,278.66,158.3ZM340,99.76A17.35,17.35,0,1,1,357.3,82.42,17.36,17.36,0,0,1,340,99.76Z"/><path class="cls-1" d="M214.87,91.39l-2.09-.61a.4.4,0,0,1-.28-.51l4.69-16.16a.41.41,0,0,1,.51-.28l2.09.61a.42.42,0,0,1,.29.51L215.39,91.1A.43.43,0,0,1,214.87,91.39ZM211,87.53l1.49-1.59a.41.41,0,0,0,0-.59l-3.11-2.74,3.11-2.74a.41.41,0,0,0,0-.59L211,77.68a.42.42,0,0,0-.59,0l-5,4.63a.43.43,0,0,0,0,.61l5,4.64a.41.41,0,0,0,.59,0Zm11.24,0,5-4.64a.4.4,0,0,0,0-.6l-5-4.65a.43.43,0,0,0-.59,0l-1.49,1.59a.42.42,0,0,0,0,.6l3.11,2.74-3.11,2.74a.41.41,0,0,0,0,.59l1.49,1.59a.41.41,0,0,0,.59,0Z"/><path class="cls-1" d="M216.61,109.76A27.35,27.35,0,1,1,244,82.41,27.37,27.37,0,0,1,216.61,109.76Zm0-44.69A17.35,17.35,0,1,0,234,82.41,17.36,17.36,0,0,0,216.61,65.07Z"/></g><g id="D"><path class="cls-1" d="M28.07,90.82a18.3,18.3,0,1,1,18.3-18.3A18.32,18.32,0,0,1,28.07,90.82Zm0-28.6a10.3,10.3,0,1,0,10.3,10.3A10.31,10.31,0,0,0,28.07,62.22Z"/><path class="cls-1" d="M11.94,44.45A11.94,11.94,0,1,1,23.88,32.52,11.94,11.94,0,0,1,11.94,44.45Zm0-17.87a5.94,5.94,0,1,0,5.94,5.94A5.94,5.94,0,0,0,11.94,26.58Z"/><path class="cls-1" d="M39,17.41A8.71,8.71,0,1,1,47.67,8.7,8.71,8.71,0,0,1,39,17.41ZM39,4a4.71,4.71,0,1,0,4.71,4.7A4.71,4.71,0,0,0,39,4Z"/><path class="cls-1" d="M82.71,227.53H37.86a27.37,27.37,0,0,1-27.34-27.35V126.9a27.34,27.34,0,1,1,54.68,0v47.87H80.63c18.56,0,29.65-12.55,29.65-33.57s-11.09-33.58-29.65-33.58h-.12A25.42,25.42,0,0,1,55.1,82.21,27.37,27.37,0,0,1,82.44,54.86h.27c25.41,0,47.08,8,62.66,23.17,15.88,15.46,24.28,37.3,24.28,63.17s-8.4,47.7-24.28,63.15C129.79,219.51,108.12,227.53,82.71,227.53Zm-44.85-118A17.36,17.36,0,0,0,20.52,126.9v73.28a17.36,17.36,0,0,0,17.34,17.35H82.71c46.74,0,76.94-30,76.94-76.33s-30.2-76.34-76.94-76.34h-.27A17.36,17.36,0,0,0,65.1,82.21,15.42,15.42,0,0,0,80.51,97.62h.12c24.08,0,39.65,17.1,39.65,43.58s-15.57,43.57-39.65,43.57H55.2V126.9a17.34,17.34,0,0,0-17.34-17.35Z"/></g></g></g></svg>