<svg xmlns="http://www.w3.org/2000/svg" xmlns:xlink="http://www.w3.org/1999/xlink" viewBox="0 0 372.15 335.88"><defs><style>.cls-1{mask:url(#mask);filter:url(#luminosity-noclip-3);}.cls-100,.cls-13,.cls-16,.cls-2,.cls-26,.cls-33,.cls-39,.cls-4,.cls-47,.cls-50,.cls-84,.cls-85,.cls-99{mix-blend-mode:multiply;}.cls-2{fill:url(#åçûìßííûé_ãðàäèåíò_2);}.cls-3{mask:url(#mask-2);filter:url(#luminosity-noclip-4);}.cls-4{fill:url(#åçûìßííûé_ãðàäèåíò_2-2);}.cls-5{fill:#f6c03b;}.cls-6{isolation:isolate;}.cls-7{fill:#d6cadb;}.cls-8{fill:#cf92d6;}.cls-47,.cls-9{fill:#a865af;}.cls-10,.cls-105,.cls-108,.cls-111,.cls-29,.cls-32,.cls-44,.cls-53,.cls-56,.cls-78{fill:#fff;}.cls-10{opacity:0.52;}.cls-10,.cls-14,.cls-98{mix-blend-mode:soft-light;}.cls-11{fill:#ddd0e2;}.cls-12{fill:url(#åçûìßííûé_ãðàäèåíò_174);}.cls-13,.cls-99{fill:#960f0f;opacity:0.28;}.cls-13{fill-rule:evenodd;}.cls-14{fill:#ffe3b7;}.cls-15{fill:#f4d390;}.cls-16{fill:#d1a666;}.cls-100,.cls-16{opacity:0.44;}.cls-17{fill:#e75f7a;}.cls-18{fill:#e83d66;}.cls-19{fill:#c6324f;}.cls-20{fill:#ab171a;}.cls-21{fill:#ff90a8;}.cls-22{fill:#d6446a;}.cls-23{fill:#dc7500;}.cls-23,.cls-92{opacity:0.81;}.cls-24{fill:#f46487;}.cls-25{fill:#eb9300;opacity:0.89;}.cls-26{fill:#bc446a;opacity:0.36;}.cls-27{fill:#ec911d;}.cls-28{fill:#eaa328;}.cls-29{opacity:0.2;}.cls-30{clip-path:url(#clip-path);}.cls-31{opacity:0.26;}.cls-33{fill:#dd9c33;}.cls-33,.cls-35{opacity:0.39;}.cls-34{clip-path:url(#clip-path-2);}.cls-36{fill:#6ecca6;}.cls-37,.cls-44{opacity:0.38;}.cls-38{fill:#ffd96e;}.cls-39{fill:#5e9970;}.cls-39,.cls-84{opacity:0.37;}.cls-40{fill:#e2a645;}.cls-41{fill:#cc9342;}.cls-42{fill:#bc8c23;}.cls-43{opacity:0.53;}.cls-45{fill:#d99be0;}.cls-46{fill:url(#åçûìßííûé_ãðàäèåíò_631);}.cls-47,.cls-50{opacity:0.51;}.cls-48{fill:#b276b8;}.cls-49{opacity:0.42;fill:url(#åçûìßííûé_ãðàäèåíò_631-2);}.cls-50{fill:#b7b1ba;}.cls-51{fill:#e1b26a;}.cls-52{fill:url(#åçûìßííûé_ãðàäèåíò_575);}.cls-53{opacity:0.34;}.cls-54{fill:#f6f2f8;}.cls-115,.cls-54{opacity:0.5;}.cls-55{fill:url(#åçûìßííûé_ãðàäèåíò_635);}.cls-56{opacity:0.32;}.cls-57{fill:#ab2e33;}.cls-58{fill:url(#åçûìßííûé_ãðàäèåíò_227);}.cls-59{fill:url(#åçûìßííûé_ãðàäèåíò_226);}.cls-60{fill:url(#åçûìßííûé_ãðàäèåíò_224);}.cls-61{fill:#dd9a7a;opacity:0.83;}.cls-62{fill:url(#åçûìßííûé_ãðàäèåíò_223);}.cls-63{fill:url(#åçûìßííûé_ãðàäèåíò_222);}.cls-64{fill:url(#åçûìßííûé_ãðàäèåíò_220);}.cls-65{fill:url(#åçûìßííûé_ãðàäèåíò_189);}.cls-66{fill:#ffab66;}.cls-67{fill:#ffbc85;}.cls-68{fill:url(#åçûìßííûé_ãðàäèåíò_189-2);}.cls-69{fill:#ffd3a3;}.cls-70{fill:url(#åçûìßííûé_ãðàäèåíò_188);}.cls-71,.cls-92{fill:#9c332f;}.cls-72{fill:#ffb273;}.cls-73{fill:#761e25;}.cls-74{fill:#fde5e8;}.cls-75{mask:url(#mask-3);}.cls-76{fill:url(#åçûìßííûé_ãðàäèåíò_187);}.cls-77{fill:url(#åçûìßííûé_ãðàäèåíò_185);}.cls-78{opacity:0.35;mix-blend-mode:overlay;}.cls-79{fill:#f4d6dc;}.cls-80{mask:url(#mask-4);}.cls-81{fill:url(#åçûìßííûé_ãðàäèåíò_187-2);}.cls-82{fill:url(#åçûìßííûé_ãðàäèåíò_185-2);}.cls-83{fill:url(#åçûìßííûé_ãðàäèåíò_184);}.cls-85{opacity:0.57;fill:url(#åçûìßííûé_ãðàäèåíò_183);}.cls-86{fill:#d3774f;}.cls-86,.cls-87{opacity:0.66;}.cls-87,.cls-96{fill:#9a2924;}.cls-88{fill:url(#åçûìßííûé_ãðàäèåíò_182);}.cls-89{fill:url(#åçûìßííûé_ãðàäèåíò_177);}.cls-90{fill:#ff7761;}.cls-91{fill:#ffcb92;}.cls-93{fill:url(#åçûìßííûé_ãðàäèåíò_176);}.cls-94{fill:#c23730;}.cls-95{fill:#fff53b;opacity:0.4;mix-blend-mode:screen;}.cls-97{fill:url(#åçûìßííûé_ãðàäèåíò_174-2);}.cls-98{fill:#3dffff;opacity:0.33;}.cls-100{fill:#925990;}.cls-101{fill:url(#åçûìßííûé_ãðàäèåíò_173);}.cls-102{fill:#dacfe5;}.cls-103{fill:url(#åçûìßííûé_ãðàäèåíò_172);}.cls-104{fill:url(#åçûìßííûé_ãðàäèåíò_171);}.cls-105{opacity:0.48;}.cls-106{fill:url(#åçûìßííûé_ãðàäèåíò_170);}.cls-107{fill:url(#åçûìßííûé_ãðàäèåíò_169);}.cls-108{opacity:0.47;}.cls-109{fill:#fe9419;}.cls-110{fill:#ffb169;}.cls-111{opacity:0.16;}.cls-112{fill:#601c23;}.cls-113{fill:#fefefe;}.cls-114{fill:url(#åçûìßííûé_ãðàäèåíò_221);}.cls-115{fill:url(#åçûìßííûé_ãðàäèåíò_175);}.cls-116{fill:#922426;}.cls-117{filter:url(#luminosity-noclip-2);}.cls-118{filter:url(#luminosity-noclip);}</style><filter id="luminosity-noclip" x="103.01" y="-8346.58" width="23.34" height="32766" filterUnits="userSpaceOnUse" color-interpolation-filters="sRGB"><feFlood flood-color="#fff" result="bg"/><feBlend in="SourceGraphic" in2="bg"/></filter><mask id="mask" x="103.01" y="-8346.58" width="23.34" height="32766" maskUnits="userSpaceOnUse"><g class="cls-118"/></mask><radialGradient id="åçûìßííûé_ãðàäèåíò_2" cx="-31.74" cy="166.22" r="18.34" gradientTransform="translate(146.19 -9.01) scale(1.09 0.99)" gradientUnits="userSpaceOnUse"><stop offset="0" stop-color="#fff"/><stop offset="0.11" stop-color="#fafafa"/><stop offset="0.23" stop-color="#ededed"/><stop offset="0.36" stop-color="#d6d6d6"/><stop offset="0.5" stop-color="#b7b7b7"/><stop offset="0.64" stop-color="#8e8e8e"/><stop offset="0.78" stop-color="#5c5c5c"/><stop offset="0.92" stop-color="#222"/><stop offset="1"/></radialGradient><filter id="luminosity-noclip-2" x="153.55" y="-8346.58" width="26.46" height="32766" filterUnits="userSpaceOnUse" color-interpolation-filters="sRGB"><feFlood flood-color="#fff" result="bg"/><feBlend in="SourceGraphic" in2="bg"/></filter><mask id="mask-2" x="153.55" y="-8346.58" width="26.46" height="32766" maskUnits="userSpaceOnUse"><g class="cls-117"/></mask><radialGradient id="åçûìßííûé_ãðàäèåíò_2-2" cx="169.49" cy="172.47" r="19.41" gradientTransform="translate(0 1.69) scale(1 0.97)" xlink:href="#åçûìßííûé_ãðàäèåíò_2"/><linearGradient id="åçûìßííûé_ãðàäèåíò_174" x1="215.4" y1="236.17" x2="327.7" y2="301.18" gradientUnits="userSpaceOnUse"><stop offset="0.4" stop-color="#ff1c30"/><stop offset="1" stop-color="#e30040"/></linearGradient><clipPath id="clip-path"><polygon class="cls-5" points="318.78 231.88 274.38 222.82 281.28 181.34 327.96 192.04 318.78 231.88"/></clipPath><clipPath id="clip-path-2"><polygon class="cls-5" points="329.75 192.59 279.31 181.66 280.94 172.09 331.88 183 329.75 192.59"/></clipPath><linearGradient id="åçûìßííûé_ãðàäèåíò_631" x1="300.32" y1="217.96" x2="312" y2="237.84" gradientUnits="userSpaceOnUse"><stop offset="0" stop-color="#fff"/><stop offset="0.78" stop-color="#ebe1ef"/></linearGradient><linearGradient id="åçûìßííûé_ãðàäèåíò_631-2" x1="282.24" y1="245.84" x2="288.82" y2="245.84" xlink:href="#åçûìßííûé_ãðàäèåíò_631"/><linearGradient id="åçûìßííûé_ãðàäèåíò_575" x1="212.13" y1="227.93" x2="340.89" y2="235.63" gradientUnits="userSpaceOnUse"><stop offset="0" stop-color="#ebe1ef"/><stop offset="0.09" stop-color="#f4eff6"/><stop offset="0.2" stop-color="#fcfafc"/><stop offset="0.32" stop-color="#fefefe"/><stop offset="0.63" stop-color="#f7f4f9"/><stop offset="1" stop-color="#ebe1ef"/></linearGradient><radialGradient id="åçûìßííûé_ãðàäèåíò_635" cx="310.76" cy="229.71" r="11.19" gradientUnits="userSpaceOnUse"><stop offset="0" stop-color="#ebe1ef"/><stop offset="0.2" stop-color="#efe8f2"/><stop offset="1" stop-color="#fefefe"/></radialGradient><linearGradient id="åçûìßííûé_ãðàäèåíò_227" x1="34.95" y1="285.4" x2="64.93" y2="325.23" gradientUnits="userSpaceOnUse"><stop offset="0.13" stop-color="#fe8613"/><stop offset="0.21" stop-color="#fc7b17"/><stop offset="0.44" stop-color="#f76022"/><stop offset="0.65" stop-color="#f45029"/><stop offset="0.81" stop-color="#f34a2b"/><stop offset="0.89" stop-color="#ed482b"/><stop offset="1" stop-color="#de422a"/></linearGradient><radialGradient id="åçûìßííûé_ãðàäèåíò_226" cx="85.64" cy="265.26" r="43.55" gradientTransform="translate(0 -2.84) scale(1 0.99)" gradientUnits="userSpaceOnUse"><stop offset="0.19" stop-color="#fe8613"/><stop offset="0.36" stop-color="#fe8015"/><stop offset="0.57" stop-color="#fe701b"/><stop offset="0.81" stop-color="#ff5624"/><stop offset="0.87" stop-color="#ff4e27"/></radialGradient><radialGradient id="åçûìßííûé_ãðàäèåíò_224" cx="163.66" cy="226.34" r="71.95" gradientTransform="translate(0 1.69) scale(1 0.97)" gradientUnits="userSpaceOnUse"><stop offset="0" stop-color="#fff6eb"/><stop offset="0.07" stop-color="#fff1e1"/><stop offset="0.33" stop-color="#ffe1bf"/><stop offset="0.58" stop-color="#ffd5a6"/><stop offset="0.81" stop-color="#ffce97"/><stop offset="1" stop-color="#ffcb92"/></radialGradient><linearGradient id="åçûìßííûé_ãðàäèåíò_223" x1="114.17" y1="276.7" x2="106.01" y2="303.13" gradientUnits="userSpaceOnUse"><stop offset="0.04" stop-color="#fe8613"/><stop offset="0.33" stop-color="#fe8314"/><stop offset="0.55" stop-color="#fe7918"/><stop offset="0.76" stop-color="#ff681e"/><stop offset="0.96" stop-color="#ff5026"/><stop offset="0.98" stop-color="#ff4e27"/></linearGradient><linearGradient id="åçûìßííûé_ãðàäèåíò_222" x1="87.53" y1="318.34" x2="132.53" y2="318.34" gradientUnits="userSpaceOnUse"><stop offset="0" stop-color="#ff4e27"/><stop offset="1" stop-color="#d23e28"/></linearGradient><linearGradient id="åçûìßííûé_ãðàäèåíò_220" x1="106.58" y1="114.81" x2="78.85" y2="94.71" gradientUnits="userSpaceOnUse"><stop offset="0" stop-color="#ffe18f"/><stop offset="0.24" stop-color="#ffd37f"/><stop offset="0.7" stop-color="#ffb056"/><stop offset="1" stop-color="#ff9738"/></linearGradient><linearGradient id="åçûìßííûé_ãðàäèåíò_189" x1="87.22" y1="87.31" x2="94.87" y2="116.14" gradientUnits="userSpaceOnUse"><stop offset="0" stop-color="#761e25"/><stop offset="0.18" stop-color="#7c2225"/><stop offset="0.41" stop-color="#8c2d23"/><stop offset="0.67" stop-color="#a73e21"/><stop offset="0.95" stop-color="#cb571f"/><stop offset="1" stop-color="#d35c1e"/></linearGradient><linearGradient id="åçûìßííûé_ãðàäèåíò_189-2" x1="220.4" y1="121.96" x2="194.33" y2="136.77" xlink:href="#åçûìßííûé_ãðàäèåíò_189"/><linearGradient id="åçûìßííûé_ãðàäèåíò_188" x1="154.32" y1="106.83" x2="142.61" y2="169.55" gradientUnits="userSpaceOnUse"><stop offset="0" stop-color="#fe8613"/><stop offset="0.24" stop-color="#fe8015"/><stop offset="0.56" stop-color="#fe701b"/><stop offset="0.91" stop-color="#ff5624"/><stop offset="0.99" stop-color="#ff4e27"/></linearGradient><filter id="luminosity-noclip-3" x="103.01" y="142.66" width="23.34" height="31.55" filterUnits="userSpaceOnUse" color-interpolation-filters="sRGB"><feFlood flood-color="#fff" result="bg"/><feBlend in="SourceGraphic" in2="bg"/></filter><mask id="mask-3" x="103.01" y="142.66" width="23.34" height="31.55" maskUnits="userSpaceOnUse"><g class="cls-1"><ellipse class="cls-2" cx="114.68" cy="158.44" rx="11.67" ry="15.77"/></g></mask><radialGradient id="åçûìßííûé_ãðàäèåíò_187" cx="-31.74" cy="166.22" r="18.34" gradientTransform="translate(146.19 -9.01) scale(1.09 0.99)" gradientUnits="userSpaceOnUse"><stop offset="0" stop-color="#fff"/><stop offset="1" stop-color="#fff"/></radialGradient><linearGradient id="åçûìßííûé_ãðàäèåíò_185" x1="112.24" y1="168.02" x2="120.97" y2="157.16" gradientUnits="userSpaceOnUse"><stop offset="0" stop-color="#fda300"/><stop offset="0.99" stop-color="#ae1500"/></linearGradient><filter id="luminosity-noclip-4" x="153.55" y="155.94" width="26.46" height="33.01" filterUnits="userSpaceOnUse" color-interpolation-filters="sRGB"><feFlood flood-color="#fff" result="bg"/><feBlend in="SourceGraphic" in2="bg"/></filter><mask id="mask-4" x="153.55" y="155.94" width="26.46" height="33.01" maskUnits="userSpaceOnUse"><g class="cls-3"><path class="cls-4" d="M174.74,156.74c-3.8-1.82-8.64-.43-12.76,3.14a63.13,63.13,0,0,0-6.62,9.34c-3.35,8.1-2,16.32,3.46,18.92,5.84,2.81,14.14-1.94,18.53-10.61S180.58,159.55,174.74,156.74Z"/></g></mask><radialGradient id="åçûìßííûé_ãðàäèåíò_187-2" cx="169.49" cy="172.47" r="19.41" gradientTransform="translate(0 1.69) scale(1 0.97)" xlink:href="#åçûìßííûé_ãðàäèåíò_187"/><linearGradient id="åçûìßííûé_ãðàäèåíò_185-2" x1="158.72" y1="179.6" x2="167.45" y2="168.74" xlink:href="#åçûìßííûé_ãðàäèåíò_185"/><radialGradient id="åçûìßííûé_ãðàäèåíò_184" cx="138.16" cy="177.73" r="39.98" gradientTransform="translate(0 1.69) scale(1 0.97)" gradientUnits="userSpaceOnUse"><stop offset="0" stop-color="#fff"/><stop offset="1" stop-color="#ffd29f"/></radialGradient><linearGradient id="åçûìßííûé_ãðàäèåíò_183" x1="144.37" y1="176.16" x2="138.84" y2="222.13" gradientTransform="translate(0 1.69) scale(1 0.97)" gradientUnits="userSpaceOnUse"><stop offset="0.15" stop-color="#fff"/><stop offset="0.3" stop-color="#f9e7df"/><stop offset="0.62" stop-color="#e9a98e"/><stop offset="1" stop-color="#d45926"/></linearGradient><linearGradient id="åçûìßííûé_ãðàäèåíò_182" x1="57.39" y1="156.04" x2="144.39" y2="242.28" gradientUnits="userSpaceOnUse"><stop offset="0" stop-color="#fe8613"/><stop offset="0.07" stop-color="#fe7f15"/><stop offset="0.4" stop-color="#ff641f"/><stop offset="0.69" stop-color="#ff5425"/><stop offset="0.91" stop-color="#ff4e27"/></linearGradient><linearGradient id="åçûìßííûé_ãðàäèåíò_177" x1="67.45" y1="156.92" x2="86.79" y2="188.98" gradientUnits="userSpaceOnUse"><stop offset="0" stop-color="#fff"/><stop offset="1" stop-color="#ffbc74"/></linearGradient><linearGradient id="åçûìßííûé_ãðàäèåíò_176" x1="119.99" y1="318.96" x2="118.94" y2="306.94" gradientUnits="userSpaceOnUse"><stop offset="0" stop-color="#fe8613"/><stop offset="0.3" stop-color="#ff6a1d"/><stop offset="0.58" stop-color="#ff5524"/><stop offset="0.78" stop-color="#ff4e27"/></linearGradient><linearGradient id="åçûìßííûé_ãðàäèåíò_174-2" x1="169.13" y1="243.82" x2="211.75" y2="232.03" gradientTransform="translate(-45.96 -141.45) rotate(-5.15)" xlink:href="#åçûìßííûé_ãðàäèåíò_174"/><linearGradient id="åçûìßííûé_ãðàäèåíò_173" x1="160.01" y1="170.34" x2="183.24" y2="186.75" gradientTransform="translate(-45.96 -141.45) rotate(-5.15)" gradientUnits="userSpaceOnUse"><stop offset="0" stop-color="#f1edf5"/><stop offset="1" stop-color="#dacfe5"/></linearGradient><radialGradient id="åçûìßííûé_ãðàäèåíò_172" cx="90.53" cy="293.89" r="47.44" gradientTransform="matrix(1.03, -0.09, 0.09, 0.95, 13.3, -129.41)" gradientUnits="userSpaceOnUse"><stop offset="0.23" stop-color="#fffeff"/><stop offset="1" stop-color="#ebe1ef"/></radialGradient><linearGradient id="åçûìßííûé_ãðàäèåíò_171" x1="186.86" y1="264.14" x2="176.22" y2="296.32" gradientTransform="translate(-45.96 -141.45) rotate(-5.15)" gradientUnits="userSpaceOnUse"><stop offset="0" stop-color="#ff9ba2"/><stop offset="0.3" stop-color="#f19eab"/><stop offset="0.86" stop-color="#cba7c4"/><stop offset="0.99" stop-color="#c1a9ca"/></linearGradient><linearGradient id="åçûìßííûé_ãðàäèåíò_170" x1="165.99" y1="162.83" x2="179.72" y2="210.4" gradientTransform="translate(-45.96 -141.45) rotate(-5.15)" gradientUnits="userSpaceOnUse"><stop offset="0" stop-color="#fff"/><stop offset="1" stop-color="#ebe1ef"/></linearGradient><linearGradient id="åçûìßííûé_ãðàäèåíò_169" x1="155.41" y1="178.92" x2="183.75" y2="183.07" gradientTransform="translate(-45.96 -141.45) rotate(-5.15)" gradientUnits="userSpaceOnUse"><stop offset="0" stop-color="#ffb1b5"/><stop offset="0.63" stop-color="#cfa3be"/><stop offset="0.99" stop-color="#b89dc2"/></linearGradient><linearGradient id="åçûìßííûé_ãðàäèåíò_221" x1="188.18" y1="215.58" x2="183.87" y2="238.69" gradientUnits="userSpaceOnUse"><stop offset="0" stop-color="#bd4b1f"/><stop offset="0" stop-color="#bd4b1f"/><stop offset="0.43" stop-color="#bd4621"/><stop offset="0.97" stop-color="#bd3626"/><stop offset="0.99" stop-color="#bd3526"/><stop offset="1" stop-color="#bd3526"/></linearGradient><linearGradient id="åçûìßííûé_ãðàäèåíò_175" x1="184.15" y1="235.29" x2="186.79" y2="224.97" gradientUnits="userSpaceOnUse"><stop offset="0" stop-color="#fe8613"/><stop offset="0.08" stop-color="#fe8015"/><stop offset="0.68" stop-color="#ff5c22"/><stop offset="1" stop-color="#ff4e27"/></linearGradient></defs><g class="cls-6"><g id="Layer_2" data-name="Layer 2"><g id="_ëîé_6" data-name="‘ëîé_6"><path class="cls-7" d="M309.51,317.15a55.08,55.08,0,0,0,5.32-2.1H122.54a70.08,70.08,0,0,0,9,2.27c-9-.19-18.61-.29-28.59-.29-50.85,0-92.07,2.6-92.07,5.79s41.22,5.8,92.07,5.8c22,0,42.23-.49,58.07-1.3,6.54,4.83,51.12,8.56,105.14,8.56,58.53,0,106-4.38,106-9.79C372.15,322.11,346.43,318.68,309.51,317.15Z"/><path class="cls-8" d="M297,166.19c-1.55-2.86-.94-4.82,2-5.36a81.33,81.33,0,0,1,8.72-1.25c1.5,0,1.66.12,1.59,6.63A76.34,76.34,0,0,1,307.93,179Z"/><path class="cls-9" d="M308.05,176.12h0Z"/><path class="cls-9" d="M308.43,176l-.35.1.33.07A1,1,0,0,0,308.43,176Z"/><path class="cls-9" d="M298.65,168.14l6.18,7.21,3.21.75a7.79,7.79,0,0,0-1.36-2.25A53.69,53.69,0,0,0,298.65,168.14Z"/><path class="cls-10" d="M309,160.22c-.23-.62-.64-.64-1.31-.64a81.33,81.33,0,0,0-8.72,1.25c-1.66.3-2.56,1.07-2.75,2.2a16.31,16.31,0,0,1,9.38,1.14Z"/><path class="cls-9" d="M305.08,164.82c-.12,2,1.38,9.26,2.95,13.86q0-.21.09-.45a75.36,75.36,0,0,0,1.2-11.94c.08-6.52-.08-6.65-1.59-6.63C307,159.91,305.29,161.27,305.08,164.82Z"/><path class="cls-9" d="M306.18,179.4c-.81-2.49,5.22-20.2,10.25-16.18,5.82,4.67.53,3.84.53,3.84-2-.22-5.22,2.5-6,5.79-.22.89-.82,3.33-.6,4.25A14.6,14.6,0,0,1,306.18,179.4Z"/><path class="cls-8" d="M288.59,173.68c-.23-.23,1.46-6,2.9-7.68s6.88.68,14.91,9.72a9.84,9.84,0,0,1,1.29,2.79s8.33-3.09,13.08-5.36c2.34-1,7.45,4,5.46,9.68-1.34,0-16.39-3.8-16.39-3.8Z"/><path class="cls-10" d="M294.67,172.29s-1.87-4.43.07-6.31a3.63,3.63,0,0,0-2.84-.28,13.25,13.25,0,0,0-2.63,7.61C291.13,171.35,294.67,172.29,294.67,172.29Z"/><path class="cls-9" d="M307.4,178.45s11.82.65,15.65-.75c2.88-1,3.62.48,3.86,2.25.9,2.64-2.54,5-2.54,5Z"/><path class="cls-9" d="M307.17,179.45c-7.45-6.11-16.52-10.06-18.58-5.77C292.29,178.73,307.17,179.45,307.17,179.45Z"/><path class="cls-8" d="M315,162.65c1.21.18,3.49,1.92.54,7-1.11,1.92-5.93,6.92-8.74,9.19-.32,1.16,3.13.85,3.13.85s13.6-7,13.86-11.78S315,162.65,315,162.65Z"/><path class="cls-10" d="M323.13,165.74c-.57-.05-2.49,1.52-6.19-1a5.94,5.94,0,0,1-.54,3.27c1.53,1,5,2.37,6.56,2.09a4.45,4.45,0,0,0,.85-2.14A3.24,3.24,0,0,0,323.13,165.74Z"/><path class="cls-9" d="M312.28,177.82c1.44-3-.19-8.16-3.33-8s-5,6.47-4.88,8.33,7.62,1,7.62,1Z"/><path class="cls-8" d="M313.3,177.22c1.48-3-.24-8.18-3.5-8s-5.12,6.45-5,8.3,7.92,1.08,7.92,1.08Z"/><path class="cls-10" d="M309.8,169.21a3.21,3.21,0,0,0-2,.93c3,1.16,1.91,7.1,1.91,7.1s3.36-1.83,3.39-2c.42-1.89-1.23-5.31-2.64-6A2.46,2.46,0,0,0,309.8,169.21Z"/><path class="cls-9" d="M307.66,179c2.1-3.87,3.89-4.55,5-4.32s1.65,1-.11,4.35C309,185.66,307.66,179,307.66,179Z"/><path class="cls-11" d="M340.88,214.21c-3.89-7.14-8.31-18.3-26.92-15.35C295.75,201.74,336.21,219,336.21,219Z"/><path class="cls-12" d="M218.85,228c-13.34,15.75-12.73,28.79-5.71,34.51-30.41,9-39.22,42.79-26.59,55.67,5.76,5.87,24.79,12.05,39.34,12.33,52,1,47.22-3.76,58.36-3,33.49,2.74,60.82,2.5,72.19-.74,15.55-4.43,9.83-25.05,5.62-29.34,16.14-24.34,5.61-96.63-47-93.76Z"/><path class="cls-13" d="M346.08,213v0l-.28-.2q-.78-.62-1.59-1.2l-.45-.31c-.55-.38-1.1-.75-1.67-1.1l-.47-.29c-.57-.35-1.15-.68-1.74-1l-.49-.25c-.41-.22-.82-.45-1.24-.66A43.57,43.57,0,0,0,324.45,204c1.51,5.4.53,14.2,3.25,19.83a8.79,8.79,0,0,1,3.57-4.13,10.49,10.49,0,0,1,.2,2.66c-.3,11.07-4.64,22.42-18.89,26.9-16.7,5.25-41.49-6-56.15-10.15-16.67-4.74-24.57-1.63-32-2.51A12.51,12.51,0,0,1,215.7,232,40.39,40.39,0,0,0,209,245.67h0c-.06.26-.11.51-.16.76l-.06.28c-1.43,6.93.42,12.41,4.27,15.65,13.53,5.63,34.19,6.13,44.2,5-29.2-3.94-42.32-10.43-46.52-17.35,5.75,3.67,13.7,6.44,17,6.93,9.1,1.37,19.34,0,31.73,5.58,38.44,17.4,69.74,12.83,86.89-4.11a27,27,0,0,0,3.76-4.62,91.35,91.35,0,0,1,2.19,33.51,1.36,1.36,0,0,0,0,.2c-7.91,5.65-22.39,11.9-46.85,10,8.65,3.88,27,4.21,44.76,2.18-3.35,13.19-.69,19.63-24.24,21.87-18,1.72-24.8-6.32-22.73-8.95-13.47,5.15-44.55,17.6-78.13,13.91-25-2.75-36.37-8.46-42.47-14.85a18.45,18.45,0,0,0,4,6.51c5.76,5.87,24.79,12.05,39.34,12.33,52,1,47.22-3.76,58.36-3,33.49,2.74,60.82,2.5,72.19-.74,15.55-4.43,9.83-25.05,5.62-29.34q.49-.76,1-1.59a4,4,0,0,0,.2-.35c.31-.54.6-1.1.88-1.68,0-.08.07-.16.1-.23.26-.56.51-1.12.75-1.71l.12-.28c.26-.63.5-1.29.74-2,0-.1.06-.2.1-.3.47-1.39.89-2.86,1.26-4.38l.06-.27c.37-1.55.68-3.17.94-4.83a.69.69,0,0,1,0-.13h0C371.46,258,365.05,228.11,346.08,213Z"/><path class="cls-14" d="M240.07,272.2c-16.42-1.15-25-4.41-25-4.41-13.38,5.75-22.95,21.58-21.36,30.76s13,15.84,41,15.84c3.08,0,6-.11,8.82-.31-2-10-3-23.86-3.33-38.17C240.11,274.68,240.09,273.44,240.07,272.2Z"/><path class="cls-14" d="M261.62,272.33a177.8,177.8,0,0,1-18.13.07c0,1.11,0,2.21.07,3.32.33,14.47,1.42,28.55,3.38,38.06,45.31-4.66,54.9-34.53,54.9-34.53S292,270.74,261.62,272.33Z"/><path class="cls-15" d="M225.62,252.45c1.58,4.95,4,12.82,12.11,19.43s21.67,11.94,45.34,12.31h1.27c10.92,0,19.7-2.25,26.71-5.63a49.67,49.67,0,0,0,20.89-19,44.36,44.36,0,0,0,5.11-11.48,1,1,0,1,0-1.94-.47h0a48,48,0,0,1-25.24,29.32c-6.68,3.16-15.05,5.27-25.53,5.28h-1.23c-23.41-.37-36.49-5.62-44.11-11.86s-9.89-13.53-11.48-18.49a1,1,0,0,0-1.9.61Z"/><path class="cls-16" d="M236.4,268c0,1-.06,2-.08,2.7.45.41.92.82,1.41,1.22s1.11.88,1.7,1.31c-.05-.78-.09-1.74-.12-2.61l-.31-.25A33.67,33.67,0,0,1,236.4,268Z"/><path class="cls-15" d="M248.43,306.77a14.89,14.89,0,0,1-2.81-2.38,41,41,0,0,1-3.27-4.34c-1.72-2.5-2.53-5.64-3.23-8.82-1.11-4.94-1.63-12.4-1.68-20a177.35,177.35,0,0,1,1-21.28c.11-.93.23-1.8.36-2.6a1,1,0,0,0-2-.31q-.2,1.25-.36,2.67a177.81,177.81,0,0,0-1.06,21.53c.05,7.73.57,15.26,1.73,20.47.72,3.2,1.55,6.6,3.52,9.51a41.07,41.07,0,0,0,3.46,4.56,16.53,16.53,0,0,0,3.15,2.68,1,1,0,0,0,1.39-.26,1,1,0,0,0-.26-1.39Z"/><path class="cls-16" d="M238.46,250.11c-.2-.3-.4-.61-.63-.89a3.48,3.48,0,0,0-1-.93l-.13,0c-.06.46-.12.94-.18,1.43-.44,3.65-.77,8.08-.94,12.75a1.83,1.83,0,0,0,.73.38,2.21,2.21,0,0,0,1.27-.11C237.72,258.07,238,253.71,238.46,250.11Z"/><path class="cls-16" d="M225.62,252.45c.23.73.49,1.53.78,2.37a4.73,4.73,0,0,0,1.74.21l.44-.05c-.4-1.12-.75-2.17-1.06-3.14a1,1,0,0,0-1.9.61Z"/><path class="cls-17" d="M280.35,176.77c-3.21-2.18-8.43-1.8-11.52.74-2.51-3.77-8-5.68-12.31-6-.18,0-.36,0-.32.22,1.17,5.74,6.7,9.39,11.46,12.12,1.17.67,3.53,1,1.26-.3a25.06,25.06,0,0,1-7.08-5.57c-.4-.5-2.47-3.12-2.07-3.79l5.37,1.43a6.13,6.13,0,0,1,1.69,4.5.87.87,0,0,0,.34.48l-.11.16c-.39.55,2.69,1.69,3,1.73C272.94,182.81,286.91,181.23,280.35,176.77Zm-9.2,3.76c1.87-1.94,5.83-4.69,7.11-3C279.73,179.38,274.86,180.21,271.15,180.53Z"/><polygon class="cls-18" points="292.74 216.56 257.28 216.2 254.74 179.23 292.52 180.76 292.74 216.56"/><path class="cls-19" d="M281.61,185.74c-3.66-.55-25.29.76-26.35,1l.09,1.79a229.7,229.7,0,0,1,25.67-2C281.15,186.57,281.7,185.74,281.61,185.74Z"/><path class="cls-19" d="M256.38,186.53c-.92-4.72-1.64-7.3-1.64-7.3l-9.18,9.44s.48,1.59,1.13,4.43a11.84,11.84,0,0,1,1.87.44S255.51,187.35,256.38,186.53Z"/><path class="cls-19" d="M252,218.46c.15,2.36,7.74,5.86,7.51,1.69a172.6,172.6,0,0,0-4.57-34.65l-7.17,6.92A128,128,0,0,1,252,218.46Z"/><path class="cls-16" d="M336.32,246.85a1,1,0,0,0-1.21.74h0a48,48,0,0,1-25.24,29.32c-.45.21-.93.41-1.39.61a16.22,16.22,0,0,1,.19,2.11c.81-.35,1.61-.7,2.38-1.07a49.67,49.67,0,0,0,20.89-19,44.36,44.36,0,0,0,5.11-11.48A1,1,0,0,0,336.32,246.85Z"/><path class="cls-11" d="M206.83,239.65c-.7-4.39-.51-12.71,13.56-24.13s21.44,11.1,21.44,11.1Z"/><path class="cls-20" d="M217.8,221.11c-1.74,1.85-3.1,3.73-2.87,6.6s2.81,4.94,5.51,5.61a29.59,29.59,0,0,0,8.49,1.17c9.39-.57,18.23,2.82,27.28,5.42s18.11,5.18,27.52,5.19S319,255.68,325,248.29c5.64-7,11.38-19.84,12.53-28.8.43-3.32-.15-16-19.57-16.1-9-4.19-19.58,1.63-30.85,4.12-14.29,3.15-26.48-2.65-40.3,2.19C234.78,213.9,227.76,213.5,217.8,221.11Z"/><polygon class="cls-21" points="225.05 211.53 262.07 194.99 238.92 199.41 209.46 211.68 225.05 211.53"/><polygon class="cls-5" points="224.81 205.28 241.66 204.11 243.29 203.38 248.75 200.94 230.53 202.9 224.81 205.28"/><path class="cls-22" d="M232.21,254.72l9.1-.67-12.7-33.13-15.38-2.68c.22.46,14.07,34.44,14.07,34.44Z"/><path class="cls-23" d="M218.72,219.9c1,.42,9.54,23.88,9.54,23.88l4.18.41-9.31-23.88Z"/><path class="cls-24" d="M255.68,253l20.77-10.7s-13.18-38.26-13.4-38.72L228,219.3l13.3,34.75Z"/><polygon class="cls-25" points="255.74 250.32 263.03 247.75 250 209.43 242.91 212.61 255.74 250.32"/><path class="cls-26" d="M263.89,208.42c.88-.17-.8-4.77-.84-4.84l-49.82,14.66,1.3,3.15,15.29,2.84S251.64,210.73,263.89,208.42Z"/><polygon class="cls-24" points="225.05 211.53 228.61 220.92 264.89 203.88 262.07 194.99 225.05 211.53"/><polygon class="cls-22" points="225.05 211.53 228.61 220.92 212.83 219.47 209.46 211.68 225.05 211.53"/><polygon class="cls-5" points="214.93 211.63 219.48 211.59 253.21 196.68 246.06 198.04 214.93 211.63"/><polygon class="cls-27" points="218.13 219.95 222.55 220.36 219.48 211.59 218.56 211.59 214.93 211.63 218.13 219.95"/><path class="cls-28" d="M239.51,185c1.65.81,2.19,7.58-3.82,16.59a9.7,9.7,0,0,0,.65,1.82c4.52-4.36,14.83-16.26,10.12-21.48C244.59,181.69,239.51,185,239.51,185Z"/><path class="cls-28" d="M213.35,198c.06,2,5.2,6.48,20.34,6,.21-.16-1.38-1.19-1.38-1.19-5.86.14-12.95-2.7-13.57-5.7S213.35,198,213.35,198Z"/><path class="cls-5" d="M234.49,203.67c-5-10.26-.59-21.21,3.38-21.69,2.38-.2,8.59,0,8.59,0-5.43,3.42-10.11,12.14-10.12,21.48C234.79,203.89,234.49,203.67,234.49,203.67Z"/><path class="cls-5" d="M234.37,202.8c-1.74-7.81-12.22-11.22-16.29-10.21-.52.46-4.73,5.42-4.73,5.42,3.67-1.49,9.2-1.93,20.34,6C238.41,203.28,234.37,202.8,234.37,202.8Z"/><polygon class="cls-28" points="244.79 213.32 251.83 210.01 248.75 200.94 241.66 204.11 244.79 213.32"/><path class="cls-28" d="M233.39,200.07c-.46.8-1.08,4.18.44,4.05s2,0,2.46-.74C235.18,203.3,233.62,200.31,233.39,200.07Z"/><path class="cls-29" d="M217.06,197.17a12.43,12.43,0,0,1,4,.4c1.46-1,1.67-3.24,1.87-4.71a15.39,15.39,0,0,0-2.45-.4C220.71,193.14,218.87,196,217.06,197.17Z"/><path class="cls-29" d="M236.54,182.52a7.66,7.66,0,0,0-2.15,2.52c5.52-2.48,6.58-2.15,8.73-.21a16.88,16.88,0,0,1,2.56-2.35A25.77,25.77,0,0,0,236.54,182.52Z"/><polygon class="cls-5" points="318.78 231.88 274.38 222.82 281.28 181.34 327.96 192.04 318.78 231.88"/><g class="cls-30"><g class="cls-31"><path class="cls-32" d="M277.21,196.45c-.13.78-.27,1.56-.41,2.34l6.06,20,1-.35Z"/><path class="cls-32" d="M278.61,188.53c-.15.76-.3,1.52-.43,2.28L287,219.43l1-.36Z"/><path class="cls-32" d="M280.29,181.7c-.2.62-.38,1.25-.55,1.88l11.33,36.51,1-.37Z"/><polygon class="cls-32" points="282.86 181.43 295.17 220.74 296.19 220.37 284.02 181.53 282.86 181.43"/><polygon class="cls-32" points="286.75 181.77 299.28 221.39 300.29 221.02 287.91 181.87 286.75 181.77"/><path class="cls-32" d="M290.73,182.35,303.39,222l1-.37-12.43-39Z"/><polygon class="cls-32" points="295.06 183.97 307.49 222.69 308.5 222.32 296.22 184.07 295.06 183.97"/><path class="cls-32" d="M299,184.49l12.56,38.86,1-.38L300.27,184.8Z"/><path class="cls-32" d="M303.86,185.62l-.69-.15L315.7,224l1-.38L304.4,185.75Z"/><path class="cls-32" d="M320.52,224.38c.05-.21.09-.41.13-.62l-12-36.61c-.45-.18-.89-.38-1.33-.6l12.46,38.1Z"/><path class="cls-32" d="M322.2,216.64l-9.32-28.37c-.41-.06-.81-.14-1.21-.22l10.07,30.63C321.89,218,322,217.32,322.2,216.64Z"/><path class="cls-32" d="M324,210.21l-7-21.25c-.41-.1-.83-.19-1.24-.3L323.41,212C323.59,211.4,323.77,210.8,324,210.21Z"/><path class="cls-32" d="M325.9,204.42l-4.85-14.63-1.2-.18,5.47,16.48C325.51,205.53,325.71,205,325.9,204.42Z"/><path class="cls-32" d="M327.39,200.1c.13-.52.27-1,.41-1.57l-2.72-8.15c-.4-.08-.8-.14-1.2-.2l3.4,10.22Z"/></g></g><path class="cls-33" d="M280.69,184.91s29.29,6.53,45.81,12.45c.38-1.31,1.46-5.32,1.46-5.32l-46.68-10.7Z"/><polygon class="cls-5" points="329.75 192.59 279.31 181.66 280.94 172.09 331.88 183 329.75 192.59"/><g class="cls-34"><g class="cls-35"><path class="cls-32" d="M280,176c-.14.86-.3,1.72-.45,2.58l6.65,21.94,1.11-.39Z"/><path class="cls-32" d="M281.54,167.29c-.16.84-.32,1.67-.47,2.5l9.64,31.42,1.12-.39Z"/><path class="cls-32" d="M283.39,159.79c-.22.69-.42,1.37-.6,2.06l12.43,40.08,1.12-.4Z"/><polygon class="cls-32" points="286.21 159.5 299.73 202.65 300.84 202.24 287.48 159.61 286.21 159.5"/><polygon class="cls-32" points="290.49 159.87 304.24 203.36 305.35 202.96 291.76 159.97 290.49 159.87"/><path class="cls-32" d="M294.86,160.5l13.88,43.58,1.11-.41-13.64-42.82Z"/><polygon class="cls-32" points="299.6 162.28 313.25 204.79 314.36 204.38 300.88 162.39 299.6 162.28"/><path class="cls-32" d="M304,162.85l13.79,42.66,1.11-.41-13.55-41.91Z"/><path class="cls-32" d="M309.26,164.1l-.75-.17,13.75,42.29,1.11-.41-13.51-41.57Z"/><path class="cls-32" d="M327.55,206.64l.15-.68-13.15-40.19c-.49-.19-1-.41-1.46-.65l13.68,41.82Z"/><path class="cls-32" d="M329.4,198.15,319.16,167c-.44-.06-.89-.14-1.32-.24l11.05,33.63C329.05,199.64,329.22,198.89,329.4,198.15Z"/><path class="cls-32" d="M331.32,191.09l-7.7-23.32-1.36-.33,8.47,25.62C330.92,192.4,331.12,191.74,331.32,191.09Z"/><path class="cls-32" d="M333.46,184.74l-5.33-16.07-1.31-.2,6,18.1Z"/><path class="cls-32" d="M335.09,180c.14-.57.3-1.15.45-1.73l-3-8.94-1.32-.22L335,180.32C335,180.21,335.05,180.1,335.09,180Z"/></g></g><polygon class="cls-36" points="289.7 250.66 247.47 242.67 247.08 212.12 292.8 214 289.7 250.66"/><g class="cls-37"><path class="cls-32" d="M252.49,232.29a.79.79,0,0,1-.76.82.79.79,0,0,1-.75-.82.78.78,0,0,1,.75-.81A.78.78,0,0,1,252.49,232.29Z"/><path class="cls-32" d="M258.11,226.89a.76.76,0,1,1-.76-.81A.78.78,0,0,1,258.11,226.89Z"/><path class="cls-32" d="M250,222.57a.76.76,0,1,1-.75-.81A.78.78,0,0,1,250,222.57Z"/><path class="cls-32" d="M257.64,218.75a.76.76,0,1,1-.75-.81A.79.79,0,0,1,257.64,218.75Z"/><path class="cls-32" d="M251.3,215.24a.78.78,0,0,1-.76.81.81.81,0,0,1,0-1.62A.78.78,0,0,1,251.3,215.24Z"/><path class="cls-32" d="M263.33,222.5a.76.76,0,1,1-.76-.82A.79.79,0,0,1,263.33,222.5Z"/><path class="cls-32" d="M278.63,223.17a.75.75,0,1,1-.75-.81A.79.79,0,0,1,278.63,223.17Z"/><path class="cls-32" d="M282.18,216.54a.76.76,0,1,1-.75-.81A.79.79,0,0,1,282.18,216.54Z"/><path class="cls-32" d="M281,228.7a.76.76,0,1,1-.76-.81A.78.78,0,0,1,281,228.7Z"/><path class="cls-32" d="M277.14,235.23a.76.76,0,1,1-.75-.81A.78.78,0,0,1,277.14,235.23Z"/><path class="cls-32" d="M266.13,215.74a.76.76,0,1,1-.75-.81A.78.78,0,0,1,266.13,215.74Z"/><path class="cls-32" d="M260.18,234.53a.76.76,0,1,1-1.51,0,.76.76,0,1,1,1.51,0Z"/><path class="cls-32" d="M264.73,229.77A.76.76,0,1,1,264,229,.78.78,0,0,1,264.73,229.77Z"/><path class="cls-32" d="M266.5,238a.75.75,0,1,1-.75-.81A.78.78,0,0,1,266.5,238Z"/></g><polygon class="cls-38" points="266.83 245.97 274.26 246.84 275.58 213.29 267.11 212.94 266.83 245.97"/><path class="cls-39" d="M247.11,214.94s26.74.69,45.18,7.41c.14-1.68.51-8.35.51-8.35l-45.72-1.88Z"/><path class="cls-38" d="M265.16,202.44s-7.23-2.28-9.51-9c-.54-.43-4.08-2.94-4.08-2.94,1.57,7.61,5.39,13.38,16.17,13.73Z"/><path class="cls-40" d="M269.76,203.72c-1.79.11-7.82-.69-8.13-7.51s5.1-7,7.85-6.8a14.46,14.46,0,0,1,2.61.2c-5.71,3-6.13,5.8-5.6,8.08s3.17,4.21,5.49,5.23A5,5,0,0,1,269.76,203.72Z"/><path class="cls-41" d="M274.29,203.85c-1.26-1.33-4.43-4-3-9s8.43-6.92,11.07-3.14c-5.18.8-6.63,8.14-3.57,10.53A7.85,7.85,0,0,1,274.29,203.85Z"/><path class="cls-41" d="M283.64,203.64s8.1-.23,10.21-7.51c-.63-.12-3.7-3.42-3.7-3.42a12.5,12.5,0,0,1-6.34,9.56A2.35,2.35,0,0,0,283.64,203.64Z"/><path class="cls-38" d="M276.88,189.9s5.32-1,6.72-.83c2.22.12,5.6,3.3,5,8.31s-5.82,6.71-10.89,6.14a6.93,6.93,0,0,0,5.71-7.05C283.28,193.28,281.45,189.34,276.88,189.9Z"/><path class="cls-38" d="M268.84,203.8c8.35-.91,5.27-14-1.48-14.4,1.58-.11,6.53-.59,7.37-.36,7.19,2.27,6.33,11.31.42,14.64C273.36,204.29,268.84,203.8,268.84,203.8Z"/><path class="cls-42" d="M273.57,203.63l14.31.8c-.48-1-3.21-2.19-8.32-1.91S273.57,203.63,273.57,203.63Z"/><path class="cls-36" d="M294.67,213.76a.5.5,0,0,1-.49.48c-2.16,0-12.09,0-25.16-.63-12.83-.63-21.26-1.23-23.3-1.38a.52.52,0,0,1-.46-.56l.33-8.91a.52.52,0,0,1,.52-.52l49,1.79a.53.53,0,0,1,.48.6Z"/><path class="cls-38" d="M265.87,203l-.26,10.48,3.41.17c1.75.08,3.45.16,5.08.22h0l.42-10.55Z"/><g class="cls-43"><path class="cls-32" d="M279.08,211.59a.76.76,0,1,1-1.51,0,.76.76,0,1,1,1.51,0Z"/><ellipse class="cls-32" cx="283.94" cy="206.19" rx="0.75" ry="0.81"/><path class="cls-44" d="M275.23,203.47a.76.76,0,1,0,1.51,0,.43.43,0,0,0,0-.11l-1.46-.05A.76.76,0,0,0,275.23,203.47Z"/><path class="cls-32" d="M295,204.29a.75.75,0,0,0,0-.26l-1.4-.06a1.13,1.13,0,0,0-.06.32.78.78,0,0,0,.76.81A.78.78,0,0,0,295,204.29Z"/><path class="cls-32" d="M264.17,210.22a.76.76,0,1,1-1.51,0,.76.76,0,1,1,1.51,0Z"/><path class="cls-32" d="M256.7,211.21a.79.79,0,0,0-.76.81.81.81,0,0,0,.3.63l.87,0a.84.84,0,0,0,.34-.67A.78.78,0,0,0,256.7,211.21Z"/><path class="cls-32" d="M258.67,205.6a.76.76,0,1,1-.76-.82A.79.79,0,0,1,258.67,205.6Z"/><path class="cls-32" d="M251.48,207.4a.76.76,0,1,1-.75-.81A.79.79,0,0,1,251.48,207.4Z"/><path class="cls-44" d="M263.41,203a.76.76,0,1,0,1.51,0s0,0,0,0l-1.48-.06S263.41,202.94,263.41,203Z"/><path class="cls-32" d="M247,210.91a.78.78,0,0,0-.76.81.85.85,0,0,0,.19.52l1.1,0a.83.83,0,0,0,.22-.57A.78.78,0,0,0,247,210.91Z"/><path class="cls-32" d="M247.55,202.68a.76.76,0,1,0,1.51,0,.81.81,0,0,0-.08-.34l-1.33-.05A.87.87,0,0,0,247.55,202.68Z"/><path class="cls-32" d="M286,213a.79.79,0,0,0-.76.82v0l1.49.06s0,0,0-.08A.79.79,0,0,0,286,213Z"/><path class="cls-32" d="M291.32,209.07a.75.75,0,1,1-.75-.81A.78.78,0,0,1,291.32,209.07Z"/></g><path class="cls-44" d="M285,203.66l-36.1-1.32c2.77,1.1,7.21,1.86,16.54,2.17C278.57,205,284.39,203.79,285,203.66Z"/><path class="cls-38" d="M272.93,203.19c2.88.29,16.78,0,17.17,7.89,1.46.33,3.4-1.23,3.4-1.23C293.26,203,283.37,201.2,272.93,203.19Z"/><polygon class="cls-45" points="337.11 235.12 298 260.81 277.42 222.42 318.45 203.78 337.11 235.12"/><polygon class="cls-46" points="329.43 222.21 326.86 217.91 310.63 226.48 301.66 211.41 297.08 213.49 306.21 228.82 286.44 239.25 288.81 243.66 308.77 233.12 317.59 247.94 321.77 245.19 313.2 230.78 329.43 222.21"/><polygon class="cls-9" points="284.84 265.04 298.53 264.85 277.95 226.47 266.04 254.75 284.84 265.04"/><polygon class="cls-47" points="274.4 234.89 281.89 254.35 297.77 263.9 277.84 226.73 274.4 234.89"/><path class="cls-48" d="M298,260.81l-20.58-38.39L273.83,231s3.93,8.25,8.56,18.22c3.66,7.88,7.72,14.57,7.72,14.57Z"/><path class="cls-49" d="M282.57,247.28c.59.74,1.45,2.4,0,2.19-1.1-.16.94,2,1.41,2.95l4.85-8.76-2.37-4.4Z"/><path class="cls-50" d="M328,208.94a25.28,25.28,0,0,1,.18,6.88c-.16,10.2-4.21,20.7-17.92,25-16.06,5-40.11-5-54.31-8.64C239.82,228,232.23,231,225,230.26c-8.21-.81-9.48-6.43-9.48-6.43s-2.8,3.76-2.19,14.28c4.65,4.93,12.56,6.22,16.73,6.76,8.8,1.15,19.1-1.09,30.69,4.75,13.06,6.57,52.73,14.23,69.09-1.59,10.29-9.94,10.52-21.43,8.35-30.52C334.91,214.58,331.47,211.74,328,208.94Z"/><path class="cls-51" d="M182.4,238.66a20.14,20.14,0,0,0,4.46,8.8,35.89,35.89,0,0,0,13.77,9.59,48.71,48.71,0,0,0,18.42,3.64,40.48,40.48,0,0,0,22-6.15,1,1,0,1,0-1.09-1.68,38.41,38.41,0,0,1-20.91,5.83,45.8,45.8,0,0,1-22.72-6,30.5,30.5,0,0,1-7.94-6.52,18.18,18.18,0,0,1-4-7.92,1,1,0,0,0-1.18-.78,1,1,0,0,0-.78,1.19Z"/><path class="cls-52" d="M346.89,219.93c-1.62-8.44-7.58-15.15-12.82-18.45a36.73,36.73,0,0,0-7.46-3.68c-.08.36-.88,3.81-1.1,4.88.18.57.24,1.16.42,1.93.85,3.63,2.79,12.23,2.46,14.36-.29,11.07-4.48,22.42-18.24,26.9-16.12,5.25-40-6-54.2-10.15-16.08-4.74-23.71-1.64-30.9-2.51-8.2-1-10-7.58-10-7.58s-12.65,6.84-7.73,17.24c4.58,5.42,16.72,10.07,20.88,10.72,8.78,1.37,18.67,0,30.63,5.58,37.1,17.4,67.31,12.83,83.87-4.11C353.07,244.41,351,229.93,346.89,219.93Z"/><path class="cls-32" d="M314.63,244c.14,3.29,1,5.09,3,3.95,7.67-4.4,11.63-10,12.47-19.1s-1.26-13.68-2.94-19.05h0c.77,3.7,1.51,7.79,1.3,9.17C328.13,228.73,324.84,238.7,314.63,244Z"/><path class="cls-32" d="M260.33,237.11l-23.46-3.32c-3.2.06-10.07.63-13.67-.18-2.78,1.8-.63,10.8.25,18.67a30.21,30.21,0,0,0,4.72,1.31c8.78,1.37,18.67,0,30.63,5.58,12.82,6,24.81,9.4,35.71,10.56,7-5,13.76-13.47,15.64-23.86C295.59,250.61,274.67,241.91,260.33,237.11Z"/><path class="cls-32" d="M323.42,236.31a24.79,24.79,0,0,1-13.27,9.56c-16.12,5.25-40-6-54.2-10.15-16.08-4.74-23.71-1.64-30.9-2.51-8.2-1-10-7.58-10-7.58-1.65.83-.1,4.56,1.48,6.23,2.09,2.21,7,3.92,14.07,3.5,12.5-.75,20.5.16,34.75,8.41,12,7,33.12,12,48.58,6,2.87-1.11,6.78-3.42,8.34-5.81C324.84,240,323.74,235.84,323.42,236.31Z"/><path class="cls-53" d="M277.47,222.52c11.31-1.58,38.85-16.1,40.81-18.74l-40.86,18.64Z"/><path class="cls-54" d="M260.52,252.48c-2-2.17-3.92-4.47-6.79-5.78a12.66,12.66,0,0,0-12.37,1.3,8.24,8.24,0,0,0-3.25,6.45c6.21.41,13,1.13,20.69,4.72a131.66,131.66,0,0,0,15.67,6.2A110.65,110.65,0,0,1,260.52,252.48Z"/><path class="cls-55" d="M330.39,229.7c.24-.23-3.61-3.07-4.49-2.2A12.54,12.54,0,0,1,313,230.24c.24-.25.48-.5.73-.74,3.41-3.3,10.48-10.39,3.8-14-5.59-3.05-9.7,3.3-10.45,8.23a14.14,14.14,0,0,0-.06,2.11,37,37,0,0,0-8.63-5c-2.57-1.07-9.46-3.18-10.68,1-1,3.44,5.25,6.6,7.57,7.62a32.18,32.18,0,0,0,10.09,2.47,17.8,17.8,0,0,0-2.46,10.91c.69,6.84,6.38,12.72,13.54,11.8,0,0-2.81-2.57-4.2-2.39-5.73.73-5.12-10.62-4.36-13.53a17.11,17.11,0,0,1,3.47-6.61h0v0c.24-.3.48-.59.74-.87C318.19,233.72,325.21,234.82,330.39,229.7ZM316,217.82c0,2.3-2.06,4.86-4.26,7.09C312.35,221.91,313.58,219.14,316,217.82ZM298.1,229c-3.19-.66-9.24-5-3.6-6.94,4.12-1.44,9.7,3.14,12.06,5.93a1.2,1.2,0,0,0,.2.18,2.5,2.5,0,0,1-1.13,1.61C304.41,230.47,299.31,229.22,298.1,229Z"/><path class="cls-11" d="M348.77,225.47c2,9,1.44,19.45-6.58,27.66-16.56,16.94-46.77,21.51-83.87,4.11-12-5.6-21.85-4.21-30.63-5.58-4.17-.65-16.3-5.3-20.88-10.72a12.84,12.84,0,0,1-.53-1.31,11.7,11.7,0,0,0,1,3.24c4.58,5.42,16.72,10.07,20.88,10.72,8.78,1.37,18.67,0,30.63,5.58,37.1,17.4,67.31,12.83,83.87-4.11C351.28,246.25,351.33,234.82,348.77,225.47Z"/><path class="cls-11" d="M346.33,217.68c0,.11.05.21.07.32l.09.21C346.44,218,346.38,217.86,346.33,217.68Z"/><path class="cls-15" d="M250.75,314.56s4.63-3.23,4.31-7c-1.74-.48-8.37-.5-8.37-.5Z"/><path class="cls-15" d="M246,307.07a1.65,1.65,0,1,1,1,2.12A1.63,1.63,0,0,1,246,307.07Z"/><path class="cls-56" d="M279.73,194.56a6.66,6.66,0,0,0-1.66-3.47,5.35,5.35,0,0,0-5.26-1.24,3.68,3.68,0,0,0-2,1.05,9.3,9.3,0,0,1,2.73,4.59l.09,0C273.65,193.28,277.49,190.8,279.73,194.56Z"/><path class="cls-56" d="M289.87,209.68a9,9,0,0,0,3.14-2,6,6,0,0,0-1.67-2.25,19.37,19.37,0,0,1-4.08.89A6.23,6.23,0,0,1,289.87,209.68Z"/><path class="cls-56" d="M280.46,190.58c2,1.21,2.86,3.72,2.93,5.89a6.81,6.81,0,0,1-.17,1.74c1.33-2.46.71-6.72.18-7.33C282.66,190,281.28,190.31,280.46,190.58Z"/><path class="cls-57" d="M156.67,247.61c.75.49,7.41,8.93,12.12,3s7.69-10.3,7.69-10.3l-6.38-8.12L143.25,212.1Z"/><path class="cls-58" d="M93.92,305.85c-5,7.17-50.15,3.75-61,.37-10.74-2.75.41-17.41.72-22.1.36-5.38-4-10.19-8.87-11.26s-9.94.87-14.14,3.76c-4.48,3.1-8.41,7.52-9.94,13C-1.17,296.4.88,304,5,309.36s10.4,8.66,16.73,10.28c22.14,5.68,71.19,3.42,82,.55C106.41,319.49,98.11,299.79,93.92,305.85Z"/><path class="cls-57" d="M159.17,309.14a7.07,7.07,0,0,0-4.2-1.91c18.33-17.5-1-19.55-9.34-17l-18.77,22.2-11.4,3.23c2.24-.05,7.72,4,14.67,1.66,4.07,1,12.91,3.76,18.46,5.32a68.34,68.34,0,0,0,12.48-1.5S167,317.77,159.17,309.14Z"/><path class="cls-59" d="M144.86,210.07c-6.29.2-28.92-20.19-35.13-18.84-6.7,1.46,6.5,27.38,4.74,43.55C114.25,254,96.29,269,90,275a20.75,20.75,0,0,0-6.34,11.75c-1,7.25,0,17.14,7.24,31.36,10.37,2.85,21.76,1.62,31.82-2.11,10.57-12.55,21.17-34.77,27.29-42.83C161.56,258,150.64,231.35,144.86,210.07Z"/><path class="cls-60" d="M162.66,238a4.28,4.28,0,0,0,1.71,0,4.44,4.44,0,0,1-1.77-2.46,3.44,3.44,0,0,0,3.09-1.1,10.49,10.49,0,0,1-6.79-4,65.5,65.5,0,0,0-20.7-21.89A16.41,16.41,0,0,0,125.94,206c-.23.05-13.8-4.53-17,2.72C124,219.59,133.73,255.31,130.7,263c-7.42,20.9-20.78,49.84-26.84,54.12,7.14.43,23.85-1.44,24.5-3.15,14.26-7.64,34.4-37.58,37.07-64.31C165.64,247.59,164.83,243.26,162.66,238Z"/><path class="cls-61" d="M115.66,298.58c-4.62,9.31-9,16.58-11.8,18.56,7.14.43,23.85-1.44,24.5-3.15,9.12-4.89,20.63-18.89,28.46-35.34C149.1,287.24,136.08,296.83,115.66,298.58Z"/><path class="cls-62" d="M127.49,284.75a10,10,0,0,0-5.11-2.75,36.29,36.29,0,0,0-27.93,5.17c-11,7.61-6.61,24.83-1.87,28.71,1.33,1.09,3.43,1.19,5.76.77a4.11,4.11,0,0,0,.35.27c5,3.5,18.82-6.25,18.82-6.25C130.08,297.07,131.46,288.9,127.49,284.75Z"/><path class="cls-63" d="M132,315.11a15.37,15.37,0,0,0-1.76-2.72c-4-4.84-14.3-3.07-23.88-.65-2.29.58-8,3.4-16.34,3.65-3.12,4.61-4.6,9.35,3.2,9.35,8.91,0,21.21,2.49,28,2.61a23.59,23.59,0,0,0,11-3A28.14,28.14,0,0,0,132,315.11Z"/><path class="cls-57" d="M162.89,232.14c.78-1.43,8.07-9.86,12.11-10.91a23.71,23.71,0,0,1,13.75.45c6.45,2.45,9.73,10.35,9.49,12.86-.37,3.73-1.11,8.93-3.29,9.41-4.85-.09-21-3-23.76-4.26s-1.59-6.85-1.59-6.85Z"/><path class="cls-64" d="M110.69,119.25c1.64-7.5,1.27-15.6-2.14-22.49S98.42,84.38,90.72,83.44,74.65,86.69,71.79,93.82c-2.72,6.76-.26,14.69,4.32,20.38s11,9.59,17.27,13.38Z"/><path class="cls-65" d="M108.55,96.76c-3.42-6.9-10.13-12.38-17.83-13.32S74.65,86.69,71.79,93.82a15.84,15.84,0,0,0-1.06,4.51c1.68-4.21,6.66-7.1,11.39-6.75,5.77.43,10.69,4.6,13.54,9.57s4,10.7,5,16.31l8.35,2.58,1.63-.79C112.33,111.75,112,103.65,108.55,96.76Z"/><path class="cls-66" d="M185.65,139.58a45.42,45.42,0,0,1,24.88-22c3.76-1.35,7.93-2.2,11.73-.95,4,1.3,6.94,4.77,8.51,8.6s1.92,8.05,2.06,12.19c.12,3.62,0,7.49-2,10.5-2.33,3.43-6.63,4.94-10.71,5.87-9.31,2.14-19.6,2.3-27.91-2.38Z"/><path class="cls-67" d="M211.3,143a10.46,10.46,0,0,0-5.29.58c3,.4,8.22,2.23,9.73,4.94-2-1.17-6.36-1.09-8.74-.22,3,3.53,4.33,7.32,5.48,11.79A11.2,11.2,0,0,0,201,157l-4.78-13.56c-.15-.43,5.81-3,6.74-3C205.75,140.48,210.48,142.1,211.3,143Z"/><path class="cls-68" d="M231.21,126.49c-.14-.41-.28-.81-.44-1.21-1.57-3.83-4.53-7.3-8.51-8.6-3.8-1.25-8-.4-11.73.95a45.42,45.42,0,0,0-24.88,22l3.84,7a47.24,47.24,0,0,0,22.5-13,71.61,71.61,0,0,1,5.91-6,12.05,12.05,0,0,1,7.71-3.09A10,10,0,0,1,231.21,126.49Z"/><path class="cls-69" d="M99.07,109.83c-5-4.58-11.34-4.38-12.53-4.58,2.3,1,6.16,3.34,6.64,5-4.08-1-10.26.6-13.89,3.1,6.28.36,9.3,3.47,9.41,5.06-6.71.74-10.06,2.4-12.16,8.36,3.84-1.76,13.48-.67,15.89,0,3.58-3.31,7.09-8.83,8.28-10C100.44,115.52,99.38,111,99.07,109.83Z"/><path class="cls-70" d="M99.87,166.27c5.29,6.33,10,12,17.79,15.3a167.06,167.06,0,0,0,22,7.47c14.9,4,31.06,5,46.22,1.77,7.74-1.66,15.8-4.67,22.14-9.51a15.83,15.83,0,0,1-5.23-12.52c.5-10.79-11.65-53.7-33.24-61.79,3.48-1.47,8.18-13.11,7.44-13.6-2,3.93-19.09,7.47-19.09,7.47,4-1.47,5-6.38,5-6.38s-5.21,3-13.9,3.44-32.24,2.2-46.88,15.44S82,141.07,82,141.07s-.64-.08-1.61-.24C84.27,150.49,93.63,158.79,99.87,166.27Z"/><path class="cls-71" d="M201.77,159.79c-.59-2.91-1.43-6.23-2.5-9.75a58.14,58.14,0,0,0-2.67,12.47A8.05,8.05,0,0,1,201.77,159.79Z"/><path class="cls-71" d="M202.87,171.08a150.16,150.16,0,0,0-19.31,11.86,77.94,77.94,0,0,0,23.24-2.89A15.73,15.73,0,0,1,202.87,171.08Z"/><path class="cls-71" d="M94.36,157c-1.11-7.76-6.21-20-9.18-22.47A53.75,53.75,0,0,0,82,141.07,33.93,33.93,0,0,0,94.36,157Z"/><path class="cls-72" d="M97.73,165.16c-7.75-21.72-.43-37.88,13.7-36.47s19.83,19.81,16.19,40.36l-9.83,29.26Z"/><path class="cls-73" d="M100.92,164.89c-7.33-15.72-1.86-29.68,10.45-28.9s17.76,15.47,15.15,32.11l-7.74,23.81Z"/><path class="cls-74" d="M103.17,167c-6.51-16.46-.86-29.26,10.1-28.51s15.82,14.72,13.5,30.56l-6.9,22.66Z"/><g class="cls-75"><ellipse class="cls-76" cx="114.68" cy="158.44" rx="11.67" ry="15.77"/></g><path class="cls-72" d="M153.94,170c5.51-16,19.29-32,35.88-20.77s-7.4,34.76-7.4,34.76L153.2,196.23Z"/><ellipse class="cls-77" cx="117.21" cy="161.83" rx="8.95" ry="9.09"/><path class="cls-73" d="M123.49,161.83a6.28,6.28,0,1,1-6.28-6.37A6.33,6.33,0,0,1,123.49,161.83Z"/><path class="cls-78" d="M125.35,165.59c-1.88-2.64-4.85-3.82-7.09-2.63s-3.05,4.7-1.7,7.92c.22,0,.43,0,.65,0A8.94,8.94,0,0,0,125.35,165.59Z"/><path class="cls-73" d="M153.21,172.71c7.57-13.51,19.87-29.29,34-18.41s-11.09,30.31-11.09,30.31L151.37,195.9Z"/><path class="cls-79" d="M152.32,173.54c7.06-12.55,18.45-27.14,31.11-16.7s-8.3,28.1-8.3,28.1l-24.84,10.33Z"/><g class="cls-80"><path class="cls-81" d="M174.74,156.74c-3.8-1.82-8.64-.43-12.76,3.14a63.13,63.13,0,0,0-6.62,9.34c-3.35,8.1-2,16.32,3.46,18.92,5.84,2.81,14.14-1.94,18.53-10.61S180.58,159.55,174.74,156.74Z"/></g><ellipse class="cls-82" cx="163.69" cy="173.41" rx="8.95" ry="9.09"/><ellipse class="cls-73" cx="163.69" cy="173.41" rx="6.28" ry="6.38"/><path class="cls-78" d="M171.83,177.17c-1.87-2.64-4.85-3.82-7.09-2.63s-3.05,4.7-1.7,7.92c.22,0,.43,0,.65,0A8.94,8.94,0,0,0,171.83,177.17Z"/><ellipse class="cls-32" cx="161.93" cy="166.48" rx="2.85" ry="2.82"/><path class="cls-83" d="M213.26,184.69a18.4,18.4,0,0,0,1.16-4.18,13.93,13.93,0,0,1-8.33,2.5c2.24-.93,3.32-3.89,3.37-5.81a20.23,20.23,0,0,1-5.92,3.12c-1.81.55-5.13,1.21-13.48,2.16-31.21,3.52-32.19-3.86-32.19-3.86l-34.21-10.29c-2.6,2.83-7.83,3.43-13.14.51-15.22-8.35-27.1-24.11-28.4-28.11-.09.22-.13.34-.13.34s-2.69-.35-5.46-.94q0,3.63.21,7.28a6.72,6.72,0,0,1-2.36-2.88c-.37,7.22,2.79,15.13,4.47,18.12.56,2.53,1.21,5,2,7.47,3.41,10.9,9.86,20.31,17.59,28.69a47.32,47.32,0,0,0,12.9,10.39c1.9,1,3.85,1.84,5.77,2.74A82.49,82.49,0,0,0,141,217.08c3.59.27,7.15,0,10.45,0,49.38-.32,65-31.64,65-31.64A9.17,9.17,0,0,1,213.26,184.69Z"/><g class="cls-84"><path class="cls-85" d="M213.26,184.69a18.73,18.73,0,0,0,1-3.17c-10,18-54,28.48-73.14,25.63-6.43.84-11.13,1.93-11.13,1.93a84.87,84.87,0,0,0-8-7.23c-13.22-7.35-20-14.31-22-17.23-7.39-11-10.51-23.48-13-36.39-2.65-3.37-4.34-6.13-4.79-7.5-.09.22-.13.34-.13.34s-2.69-.35-5.46-.94q0,3.63.21,7.28a6.72,6.72,0,0,1-2.36-2.88c-.37,7.22,2.79,15.13,4.47,18.12.56,2.53,1.21,5,2,7.47,3.41,10.9,9.86,20.31,17.59,28.69a47.32,47.32,0,0,0,12.9,10.39c1.9,1,6.46,3.84,8.39,4.74,6.73,2.61,11.8,2.41,21.32,3.14,3.59.27,7.15,0,10.45,0,49.38-.32,65-31.64,65-31.64A9.17,9.17,0,0,1,213.26,184.69Z"/></g><path class="cls-73" d="M147.47,193.91c-.17,0-.63.94-5.74,2.12a5.09,5.09,0,0,1-5.61-2.58,6.62,6.62,0,0,1-.45-1.11c-.21-.63-.58-3.6-.58-3.6s-2.29,2.27-2.87,2.69c-3.29,2.34-8,.07-10.55-2.15a12.59,12.59,0,0,1-3.32-3.72c.05,1.49,1.67,4.31,2.69,5.34,3,3,8.4,5.43,12.4,2.8a6.87,6.87,0,0,0,6.41,4.34,10.76,10.76,0,0,0,4.63-1.07C144.93,196.76,147.27,195,147.47,193.91Z"/><path class="cls-71" d="M134,119.93a.15.15,0,0,0,.27,0c2.8-5.79,3.44-12.42,2.87-18.81-.06-.68-.16-1.36-.25-2a97.11,97.11,0,0,0-11.67,2.43A84.55,84.55,0,0,1,134,119.93Z"/><path class="cls-71" d="M169.55,107c3.48-1.47,8.18-13.11,7.44-13.6-2,3.93-19.09,7.47-19.09,7.47,4-1.47,5-6.38,5-6.38a33,33,0,0,1-11.57,3.23c.45,6-.6,26.39-3,39.73C160.74,121,169.84,107.1,169.55,107Z"/><path class="cls-71" d="M170.72,129.62a27.59,27.59,0,0,0,14.71-4.6c.69-.46,1.35-1,2-1.5a58.51,58.51,0,0,0-6.68-8.67,87.74,87.74,0,0,1-10.66,13.34A.84.84,0,0,0,170.72,129.62Z"/><path class="cls-86" d="M150.35,217.7c-.1-.23-.18-.46-.26-.69-11.89-.19-18.6-1.2-23-1.59-6.53-3.35-22.31-14.26-22.31-14.26l2.8,9.36s9.25,3.67,15.83,18.44c8.77-6.49,19-9.45,27.35-10.92C150.59,217.83,150.47,217.94,150.35,217.7Z"/><path class="cls-87" d="M151.43,217a228.7,228.7,0,0,1-24.38-1.59c-6.53-3.35-22.31-14.26-22.31-14.26l2.8,9.36,18.6,6.89s24.72,1,25.29.85Z"/><path class="cls-88" d="M120.34,223.74c-3.24-6.15-4.27-8.94-9.24-13.6-4.62-7-8.84-16.56-11.63-33.23,0-.09-.09-.42-.2-.88,0,0,0-.07,0-.09-.29-3.1,2.21-5.78,2.74-7.11.22-.56-1.22-5.32-6.72-7.34-2.64-1-3.82.07-4.58.74a.53.53,0,0,1-.89-.27,8.6,8.6,0,0,0-1.58-3.9c-.72-1-2.28-2.09-5.88-1.67-3.08.36-6.42,1.61-7.47,2.83-1.2,1.38-1,3.12-.71,4.67a1,1,0,0,1-1.51,1,6,6,0,0,0-2.32-1.17c-1.64-.29-3.73.7-7.69,4.85-3.08,3.23-3,5.13-2,6.49a10.87,10.87,0,0,0,2.51,2.28.52.52,0,0,1-.13.9A18,18,0,0,0,61,179.31a8,8,0,0,0-3,4,7.6,7.6,0,0,0-.07,5.53c2.22,5.88,3,2.09,8.39,4.61.67.31,1.52.69,2.48,1.11a54.42,54.42,0,0,1,7.58,7.34c3.13,4.39,9.58,13.7,12.62,17.92,4.78,6.65,20.48,7.93,26.05,17.05C125.12,238,120.34,223.74,120.34,223.74Z"/><path class="cls-89" d="M91.42,164.13a11,11,0,0,0-2.7,3.23,24.52,24.52,0,0,0-1-4.32,17.22,17.22,0,0,0-11.09,2,42.5,42.5,0,0,0,.77,4.91,27.54,27.54,0,0,0-4.36-2.69,30.94,30.94,0,0,0-8.22,8.23c1.49,1.37,3,2.83,4.09,3.91a11,11,0,0,0-6.4.84c-.2.61-.39,1.26-.56,1.94a20.23,20.23,0,0,0-.13,3.65c.19,3.3,2.21,3,4.69,3.46,3.24.61,6.61,2.51,9.67,3.67a17.8,17.8,0,0,0,6.49,1.56c3.08-3.32,8.8-7.34,11.15-7.11,2.24-3.49.45-7.69,1.08-11.68a17.2,17.2,0,0,1,2.88-7.83C96.19,165,93.79,164.42,91.42,164.13Z"/><path class="cls-90" d="M75.68,175.21a2.75,2.75,0,0,0,0-1,6.87,6.87,0,0,0-1.28-3,2.36,2.36,0,0,0-1.34-1c-2.27-.41-4.67,3.5-3.5,5.23S75.12,178,75.68,175.21Z"/><path class="cls-90" d="M65.7,185.78a2.25,2.25,0,0,0,1.85-.18,6.74,6.74,0,0,0,1.54-1.17,3,3,0,0,0,.66-.73,1,1,0,0,0,.1-.91,1,1,0,0,0-.71-.49,3.15,3.15,0,0,0-.92,0,6.27,6.27,0,0,0-2.06.44C65,183.3,64.25,185.18,65.7,185.78Z"/><path class="cls-90" d="M80.53,170.54a3.91,3.91,0,0,0,.87,1.25,1.76,1.76,0,0,0,1.44.46,2,2,0,0,0,1.32-1,5.54,5.54,0,0,0,.55-1.57c.18-.76.37-1.52.55-2.29a1.84,1.84,0,0,0-.07-1.51c-.4-.56-1.29-.48-2-.34l-2.13.4a3.55,3.55,0,0,0-1,.31C78.56,167,80.06,169.58,80.53,170.54Z"/><path class="cls-90" d="M90.71,171.13c0,.4,0,.89.36,1s.72-.11,1-.33l1.81-1.36a3.26,3.26,0,0,0,1.25-1.39,1.68,1.68,0,0,0-.53-1.82C92.17,165.16,90.91,169.36,90.71,171.13Z"/><path class="cls-32" d="M116,155.73a2.85,2.85,0,1,1-2.85-2.82A2.83,2.83,0,0,1,116,155.73Z"/><path class="cls-91" d="M22.12,315.52a16.69,16.69,0,0,0,7.33-11.29c-4.15-5,3.93-16.13,4.19-20.11.36-5.38-4-10.19-8.87-11.26s-9.94.87-14.14,3.76c-4.48,3.1-8.41,7.52-9.94,13C-1.17,296.4.88,304,5,309.36a27.74,27.74,0,0,0,11.25,8.41A16.32,16.32,0,0,0,22.12,315.52Z"/><path class="cls-71" d="M94,135.1c.35-6,.35-10.5.24-13.6a87.81,87.81,0,0,0-5.59,7.4C91,130.93,93.76,133.63,94,135.1Z"/><path class="cls-71" d="M84.12,312.61A4.43,4.43,0,0,1,86.47,309a71.19,71.19,0,0,1-9.09.93,10.14,10.14,0,0,0-.53,6.56,10.35,10.35,0,0,0,4.83,6.14c1.63-.08,3.2-.18,4.73-.29A12.87,12.87,0,0,1,84.12,312.61Z"/><path class="cls-92" d="M31.73,305.82c1.11,4.82-5.66,12.11-11.34,13.42.46.14.91.28,1.37.4,1.48.38,3.1.72,4.81,1,6.56-3,9.7-9.45,9.57-13.65-1.26-.27-2.36-.53-3.22-.8A8.29,8.29,0,0,1,31.73,305.82Z"/><path class="cls-93" d="M130.27,312.39c-2.05-2.48-5.75-3.21-10.15-3-2.12.59-4.49,1.36-7.16,2.37-12.12,4.55.52,9.14,5.28,7.05,2.72-1.19,8.61-3.23,13.18-4.77A15,15,0,0,0,130.27,312.39Z"/><path class="cls-94" d="M162.21,313.41a19.55,19.55,0,0,0-3-4.27,6.47,6.47,0,0,0-3.51-1.78c-11,.21-13.15,8-7.49,7.19a95.39,95.39,0,0,1,12.49-1S161.29,313.51,162.21,313.41Z"/><path class="cls-94" d="M155.22,294.62c-.4,1.83-.75,4,.63,5.56,1.22,1.37,3.24,1,5,.25,4.6-7.35-.3-10.38-6.23-11C155.47,290.44,155.93,291.33,155.22,294.62Z"/><path class="cls-95" d="M29.05,287.11a16.82,16.82,0,0,0,.68-11.7,11.49,11.49,0,0,0-5-2.55c-4.88-1.07-9.94.87-14.14,3.76-.46.32-.9.65-1.34,1-11,15-.77,22.9,4.09,22.72a12.67,12.67,0,0,0,7.68-3A27.64,27.64,0,0,0,29.05,287.11Z"/><path class="cls-71" d="M185.09,135.68c-1.88-.17-9,3.23-10.31,5.47,2.24.11,10.2.7,18.79,7.69C191.7,142.82,186.81,136,185.09,135.68Z"/><path class="cls-92" d="M98.26,202c-4.62,4.51-13.73,6.22-20.18,2.28,2,2.82,4.51,6.45,6.79,9.69C92.28,214.7,96.72,210.44,98.26,202Z"/><path class="cls-92" d="M110.05,214.14c0,3.84-4.77,8.32-10,9.69-2.34.61-5.66-.25-7.71-1,3.16,2.08,7.48,3.67,11.63,5.6C111.25,229.79,112.23,220.91,110.05,214.14Z"/><path class="cls-92" d="M114.17,238.68A37.15,37.15,0,0,1,111,249.21c4.57,1.14,9.95,4.63,15.5,10.13C123.78,249.9,120.25,244.63,114.17,238.68Z"/><path class="cls-92" d="M107.36,280.35a30.8,30.8,0,0,0-9.45-12.93c-3,3.07-5.74,5.53-7.6,7.29A31.2,31.2,0,0,1,107.36,280.35Z"/><path class="cls-92" d="M104.62,292.52c-4.37-1-8.91-1.21-13.28-2.27a20.22,20.22,0,0,1-7.67-3.47A38.16,38.16,0,0,0,84.2,300c4.11.52,8.52-.15,12.67-.91,6.27-1.15,13.06-2.31,18.77.5C113.39,295.69,109,293.56,104.62,292.52Z"/><path class="cls-92" d="M85.79,306q1,3.09,2.5,6.55c5-1.35,4.52-3.21,11.7-4.21a19.56,19.56,0,0,1,7.69.41s-3.31-2.78-9.81-3.06C90.79,305.38,89.55,307,85.79,306Z"/><path class="cls-92" d="M41,311.4c.27.9,1.44,9.72-.12,9.72a12.53,12.53,0,0,0,7.28-5.36A12.35,12.35,0,0,0,50,309c-4.06-.41-7.8-.89-10.89-1.42A13.3,13.3,0,0,1,41,311.4Z"/><path class="cls-92" d="M68.58,315.26a11.07,11.07,0,0,1,5.7-5.23c-4,.09-8.17,0-12.39-.18a16.9,16.9,0,0,0,.49,6.27,16.12,16.12,0,0,0,5.26,7l.83,0A9.43,9.43,0,0,1,68.58,315.26Z"/><path class="cls-92" d="M104.79,259.49A33.45,33.45,0,0,1,119,272.58a38,38,0,0,0-9.65-20.1A59.27,59.27,0,0,1,104.79,259.49Z"/><path class="cls-71" d="M132.35,323.32a23.35,23.35,0,0,1-10.15,2.78c-4.67,0-15.59-.93-20.92-.88,7.3.73,15.07,2,20,2.13a23.59,23.59,0,0,0,11-3Z"/><path class="cls-96" d="M117.89,317.11a14.93,14.93,0,0,1,6.89,6.87,13.26,13.26,0,0,0-2.48-6.05C121.55,317.54,117.42,316.7,117.89,317.11Z"/><path class="cls-96" d="M126.61,313.06a14.05,14.05,0,0,1,1.75,3c.18,1.1,1.34,6,1.34,6a44.87,44.87,0,0,0-.32-6.53C129.2,314.6,125.29,311.58,126.61,313.06Z"/><path class="cls-90" d="M74.69,183.65c6.53-8.28,17-7.45,16-3.85-1.25,4.09-8.67,12.88-9.85,10.91C80.79,190.71,73.42,185.27,74.69,183.65Z"/><path class="cls-97" d="M198.29,138.35c3.59-3.24,3.5-8.51,2.81-13.07C197.52,101.5,184,79.17,164,63.94c-5.9-4.5-10.55-5.31-17.25-8.66-3.82-1.91-5.16-23.18-4.39-41.22-3.57,7.86-19.64,36.7-19,47.68.26,4.65,4,9.48,7.36,9.31-6.21,3.9-12.56,18.18-10.9,22.74,5.35,14.69,26.45,30.9,46.72,39.31C187.16,141.65,194.8,141.5,198.29,138.35Z"/><path class="cls-98" d="M200.73,124.48c-3.59-23.79-17.08-46.11-37.09-61.35-5.9-4.49-10.54-5.3-17.25-8.65-1.78-.89-3-6-3.76-13L141,39.63c-1.06,5.91-2,12.31-1,18.11,1.14,4.44,3.47,8.16,7.7,10.18,3.85-1.54,9.28-7.05,11.69-4.64,18.82,18.89,20.71,58.75,20.84,65.43.09,4.45-9.56,2.42-7.3,6.26,15.59,5.8,21.89,5.36,25,2.58C201.5,134.31,201.42,129,200.73,124.48Z"/><path class="cls-99" d="M151.74,66.1c-9.7,2.4-22.21,2.69-26.51,1.17,1.46,2.27,3.54,3.87,5.48,3.78-6.21,3.9-12.56,18.18-10.9,22.74a31.75,31.75,0,0,0,2.24,4.75h0a67.36,67.36,0,0,0,7.72,9.38c4.35-17.4,15.31-35.51,22.32-41.2A.36.36,0,0,0,151.74,66.1Z"/><path class="cls-100" d="M130.13,70.38c-.79-.06-1.49-.12-2.12-.19a4.59,4.59,0,0,0,2.7.86c-5.2,3.27-10.5,13.82-11.1,19.84,3-3.31,11.14-10.59,32.65-24.51C144.76,68.23,143.48,70.11,130.13,70.38Z"/><path class="cls-101" d="M128.28,37.8a5.85,5.85,0,0,1-2.15-6.45A10.14,10.14,0,0,1,119.81,22a10.45,10.45,0,0,1,7-9.1,7.25,7.25,0,0,1,2.45-8.74,8.74,8.74,0,0,1,9.76,0,6.39,6.39,0,0,1,6.92-4,5.87,5.87,0,0,1,5,5.91,3.27,3.27,0,0,1,3.89-.4,2.69,2.69,0,0,1,.94,3.5c3.37.09,5.26,4.67,2.83,6.84a8.89,8.89,0,0,1,5.62,9.17,9.53,9.53,0,0,1-8,7.64,11.65,11.65,0,0,1-8.86,8.88c-4.19,1-6.48-.82-10.08-2.06C134.42,38.58,130.89,39.7,128.28,37.8Z"/><path class="cls-102" d="M146,114.35c9.81,5.42,21.73,8.29,33.18,8.66,3.37.11,6.3.25,8.68.29,8.46.16,10.24.07,11.37-.14,4.91,2.12,1.83,11.53.18,16.58.76,3.23,3.78,10.85-9.72,14.38-9.75,2.55-20.13-.42-29.59-3.66-19.14-6.55-38.65-18.56-49.73-34.37-2-2.85-3.79-6.13-3.29-9.51a8.85,8.85,0,0,1,7.08-7c.58-.12,2-6.91,4.93-7.6C119.56,92.63,117.77,98.75,146,114.35Z"/><path class="cls-103" d="M160.12,150.46c7,2.39,14.47,4.63,21.84,4.61a11.94,11.94,0,0,0-.86-5c-1.76-4.3-5.47-7.62-9.08-10.78,2.81-2.35,3.46-6.34,2.43-9.69a19.06,19.06,0,0,0-4.71-7.33A71.42,71.42,0,0,1,146,114.35c-11.92-6.58-18.48-11.47-22.13-15a8.17,8.17,0,0,0-3,2.53,6.13,6.13,0,0,0,1.57,8.32,7.15,7.15,0,0,0-6.87,3.45c-1.39,2.48-1.28,5.38-.72,8.15C126.33,134.8,143.36,144.72,160.12,150.46Z"/><path class="cls-104" d="M200.45,122.57c-.26.27-.89.64-2.82.74a.37.37,0,0,0-.35.3c-1.24,7.54-7.26,14.49-15.1,17a.36.36,0,0,0,.09.71,13,13,0,0,1,3.88.72c2.15.8,4,2.64,4,4.79-.07,3.81-5.3,5.44-9.42,5.72-1.45.09-2.91.14-4.36.17-1.29-.11-2.71-.29-4.26-.56-7-1.23-16.46-4.39-26.1-9.27a134.24,134.24,0,0,1-23.13-14.69c-5.46-4.34-8.33-7.53-8.61-7.32s2.24,3.71,7.52,8.42a109.24,109.24,0,0,0,23.13,15.43,91.84,91.84,0,0,0,23.66,8.38c7,1.87,14.24,2.85,21.16,1,13.5-3.53,10.48-11.15,9.72-14.38,1.62-5,5.93-14.86,1.48-17.25A.4.4,0,0,0,200.45,122.57Z"/><path class="cls-105" d="M150.5,121.08c23.07,9.85,46.82,2.24,46.82,2.24h0c-3.14.19-7.44.05-18.12-.31-11.45-.37-23.37-3.24-33.18-8.66C117.77,98.75,119.56,92.63,119.11,92,118.6,93.58,117,106.79,150.5,121.08Z"/><path class="cls-106" d="M133.87,33.15a8.33,8.33,0,0,0,8.29,2.91c3-.84,5.06-4.35,3.56-6.9,2.43,2.58,7.55,2.29,9.67-.54s.59-7.34-2.9-8.51c2.07-.5,4-2,4.24-3.95s-2-3.95-4-3.17a3.38,3.38,0,0,0-2.09-3.34,4,4,0,0,0-4.12.73,4,4,0,0,0-.33-5.51,4.94,4.94,0,0,0-4.71-.9,4.28,4.28,0,0,0-.66,1.27.86.86,0,0,1-.58.55,1,1,0,0,1-.8-.13,7.47,7.47,0,0,0-4.9-1.24A7.33,7.33,0,0,0,131,5.7a6.48,6.48,0,0,0-2.62,5.74,5.65,5.65,0,0,0,.5,1.85.77.77,0,0,1,0,.63.87.87,0,0,1-.49.45,9.81,9.81,0,0,0-4.41,3.24,8.61,8.61,0,0,0-1.84,4.92,6.44,6.44,0,0,0,0,1A9.27,9.27,0,0,0,127.76,31a.78.78,0,0,1,.47,1,4.67,4.67,0,0,0-.21,1.86,5.3,5.3,0,0,0,.35,1.41A6.53,6.53,0,0,0,133.87,33.15Z"/><path class="cls-107" d="M163.48,18.74a10,10,0,0,0-2.1-2.16,9.27,9.27,0,0,0-1.23-.8.68.68,0,0,0-.19-.08l-.14-.06c0-.06.05-.06.1-.16l.07-.12a3.6,3.6,0,0,0,.14-.35,4.23,4.23,0,0,0,.29-1.53,5,5,0,0,0-.79-2.63,4.75,4.75,0,0,0-1.8-1.71,3.48,3.48,0,0,0-1.48-.44,1.22,1.22,0,0,0,.09-.49,3.41,3.41,0,0,0-.08-.85,3.07,3.07,0,0,0-.62-1.2c-.51-.55-.93-.64-1-.58s.23.3.52.85a2.84,2.84,0,0,1,.31,1.05,2.44,2.44,0,0,1,0,.69A5.82,5.82,0,0,1,155,9.44c.31.12.89.12,1.26.25a2.48,2.48,0,0,1,.93.39,3.64,3.64,0,0,1,1.23,1.39,3.84,3.84,0,0,1,.45,2,2.79,2.79,0,0,1-.26,1l0,.12a1,1,0,0,1-.1.16l-.38.45c-.23.31-.59.64-.89,1,.3.16.68.32,1,.49a8.38,8.38,0,0,1,1,.51,6,6,0,0,1,1,.7,7.92,7.92,0,0,1,1.66,1.84,7.53,7.53,0,0,1,1.3,4.94,7.72,7.72,0,0,1-2.66,4.9,9.11,9.11,0,0,1-2.63,1.64c-.25.08-.49.19-.75.25l-.38.11-.37.08-.43.08-.43.09-.22,0c-.08,0,0,.11-.07.16l-.17.76c-.13.62-.19.72-.26,1a10.56,10.56,0,0,1-4.24,5.37,10.19,10.19,0,0,1-6.31,1.73c-2.08-.18-4.06-1.25-6.12-1.94a9.28,9.28,0,0,0-1.65-.45,11.69,11.69,0,0,0-1.61-.16c-1,0-2,0-2.82-.08a7.78,7.78,0,0,1-2.28-.42,5,5,0,0,1-1.68-1,5.74,5.74,0,0,1-1.64-2.68c-.47-1.71-.09-2.75-.29-2.78s-.24.2-.41.69a5.13,5.13,0,0,0-.17,2.25,6.15,6.15,0,0,0,3.6,4.75,9.29,9.29,0,0,0,2.71.67c1.9.22,3.82.07,5.54.83.94.36,1.9.81,3,1.24a13.18,13.18,0,0,0,3.6,1,12.74,12.74,0,0,0,13-8.42l.2-.66.05-.1h0l.08,0,.5-.14c.33-.08.64-.22,1-.33A11.2,11.2,0,0,0,162,31a9.53,9.53,0,0,0,3.22-6.22A9.17,9.17,0,0,0,163.48,18.74Z"/><path class="cls-108" d="M124.68,62.92c.94-.07,6.89-23.18,5.88-22.13S123.59,56.27,124.68,62.92Z"/><path class="cls-71" d="M103.21,126.36c13.42-3.93,22.48,1.07,22.92.89.32-2.64-7.28-9-7.72-9.34A33.19,33.19,0,0,0,103.21,126.36Z"/><path class="cls-109" d="M124.23,167.39s5.29-8.83,9.79-9.89c2.24-.53,18.2,2.92,21.23,6.14,1.69,1.8,3.76,13.48,3.76,13.48S136.57,179.31,124.23,167.39Z"/><path class="cls-110" d="M135.44,159.7c.41-.71.84-1.4,1.29-2.08a9.61,9.61,0,0,0-2.71-.12c-4.5,1.06-9.79,9.89-9.79,9.89a28.28,28.28,0,0,0,5.27,4A110.58,110.58,0,0,1,135.44,159.7Z"/><path class="cls-73" d="M158.68,177.06c-.56.29-6.51.89-19-2.14-5.59-1.36-14.13-5.68-15-8.27-.33-1-2.24,4.86-.63,5.74,5.42,3,10.18,7,10.45,7.62a6.8,6.8,0,0,1,.4,2.74c.48,1,4.88,1.61,4.88,1.61a5.2,5.2,0,0,1,2-2.14c.75-.4,7.08-.35,15.05-.32C158.89,181.91,159.6,177.14,158.68,177.06Z"/><path class="cls-111" d="M158.68,177.06c-.34.17-2.63.45-7.1,0a37.72,37.72,0,0,1-4.35,4.83c2.59,0,5.89,0,9.55,0C158.89,181.91,159.6,177.14,158.68,177.06Z"/><path class="cls-112" d="M158.68,177.06l-.2-.38h0a4.26,4.26,0,0,1-.77.13c-.44,0-1,.07-1.81.07a71.33,71.33,0,0,1-16.12-2.38,42,42,0,0,1-9.17-3.63,25.38,25.38,0,0,1-3.74-2.36,5.31,5.31,0,0,1-1.79-2l-.14-.24a.5.5,0,0,0-.38-.16.53.53,0,0,0-.32.11,1,1,0,0,0-.27.3,7.16,7.16,0,0,0-.67,1.77,9.88,9.88,0,0,0-.33,2.36,3.83,3.83,0,0,0,.16,1.2,1.56,1.56,0,0,0,.7.9,57.74,57.74,0,0,1,7.09,4.68c1,.72,1.73,1.37,2.29,1.87.28.25.5.46.65.62l.18.2.05.05v0l.08,0-.08,0h0l.08,0-.08,0a6.56,6.56,0,0,1,.38,2.2c0,.12,0,.23,0,.33l0,.21a1.39,1.39,0,0,0,.49.53,9.27,9.27,0,0,0,2.85,1c1,.22,1.86.33,1.87.33a.43.43,0,0,0,.47-.27,3.94,3.94,0,0,1,.72-1,4.32,4.32,0,0,1,1-.87h0a3.34,3.34,0,0,1,.76-.12c1.3-.13,3.91-.16,7.26-.16l6.82,0h0a1.94,1.94,0,0,0,1.28-.51,4.11,4.11,0,0,0,1.09-1.78,6.36,6.36,0,0,0,.35-2,2.59,2.59,0,0,0-.12-.86,1.06,1.06,0,0,0-.22-.36.74.74,0,0,0-.45-.22l-.24.05.2.38,0,.42,0-.15-.13.11.11,0,0-.15-.13.11h0a1.53,1.53,0,0,1,.1.63,5.6,5.6,0,0,1-.54,2.26,3,3,0,0,1-.61.86,1.08,1.08,0,0,1-.7.29h0l-6.83,0c-2.27,0-4.21,0-5.64.07-.72,0-1.31.06-1.77.1-.23,0-.42,0-.59.09a1.26,1.26,0,0,0-.44.14,5.14,5.14,0,0,0-1.28,1.05,4.43,4.43,0,0,0-.88,1.31l.41.15.06-.42-.68-.11a23.66,23.66,0,0,1-2.38-.53,7.53,7.53,0,0,1-1.05-.4,1.13,1.13,0,0,1-.43-.32l-.4.17.44,0c0-.13,0-.26,0-.4a7.19,7.19,0,0,0-.45-2.56,2.28,2.28,0,0,0-.39-.48,34.68,34.68,0,0,0-3.78-3.15,59.4,59.4,0,0,0-6.46-4.18.73.73,0,0,1-.3-.42,3.11,3.11,0,0,1-.12-.94,9.5,9.5,0,0,1,.44-2.59,5.27,5.27,0,0,1,.35-.94,1.38,1.38,0,0,1,.13-.22h0l-.12-.12.08.15,0,0-.12-.12.08.15-.17-.29V167l.17,0-.17-.29v0l-.26.24a.37.37,0,0,0,.26.11v-.35l-.26.24.15-.14-.2.07,0,.07.15-.14-.2.07a6,6,0,0,0,2.07,2.39,40.87,40.87,0,0,0,13.25,6.15,71.79,71.79,0,0,0,16.33,2.41,19.47,19.47,0,0,0,2-.09l.59-.09a1.73,1.73,0,0,0,.4-.12l-.2-.38,0,.42Z"/><path class="cls-113" d="M128.68,170.28c1.41.89,2.48,1.75,2.3,2.19s-1.7.2-3.21-.76-2.41-2.13-2.11-2.49S127.26,169.4,128.68,170.28Z"/><path class="cls-15" d="M176.43,255a1.66,1.66,0,0,0,0-1.36,1.62,1.62,0,0,0-.87-.82,89.27,89.27,0,0,1-1.3-13,20.76,20.76,0,0,1,.36-4.26,7.41,7.41,0,0,1,.46-1.42,2,2,0,0,1,.55-.74,1,1,0,0,0-1.25-1.57,4.1,4.1,0,0,0-1.1,1.44,10.12,10.12,0,0,0-.8,2.92,27.34,27.34,0,0,0-.22,3.63,91.86,91.86,0,0,0,1.36,13.52,1.65,1.65,0,0,0,.49,2.41l-1.3,4.65a1,1,0,0,0,.9,1.27c1.79.08,5.06-.09,6.76-2.17A39.29,39.29,0,0,0,176.43,255Z"/><path class="cls-114" d="M175.06,231.37c.55,1.88-1.17,6.6-1.09,7a4.08,4.08,0,0,0,1.91,2.6c6,1.33,15.54,2.91,19.07,3,2.18-.48,2.92-5.68,3.29-9.41.24-2.51-3-10.41-9.49-12.86a23.71,23.71,0,0,0-13.75-.45,7.42,7.42,0,0,0-1.83.83C173,225.16,174.87,229.06,175.06,231.37Z"/><path class="cls-115" d="M188.75,221.68a23.71,23.71,0,0,0-13.75-.45,6.63,6.63,0,0,0-1.34.56c.63,3.33,5.69,9.17,7.4,9.67a62.44,62.44,0,0,0,17.15,3.37l0-.29C198.48,232,195.2,224.13,188.75,221.68Z"/><path class="cls-116" d="M183.1,229.18l.31,3.34s-.38,6.32-.9,7.45a25.68,25.68,0,0,0,2.68-7.58C185.13,231.4,183.1,229.18,183.1,229.18Z"/><path class="cls-116" d="M193.23,230.17s.18,3.71.08,4.32c-.24,1.58-3,8.25-3,8.25s3.58-4.08,4.85-8.17A10.18,10.18,0,0,0,193.23,230.17Z"/><path class="cls-51" d="M176.43,255a1.66,1.66,0,0,0,0-1.36,1.62,1.62,0,0,0-.87-.82c-.12-.74-.24-1.55-.36-2.39,0,0,0,.09,0,.31a30.4,30.4,0,0,1,0,5.57,5.15,5.15,0,0,1-2.38,4.6,1,1,0,0,0,.91.78c1.79.08,5.06-.09,6.76-2.17A39.29,39.29,0,0,0,176.43,255Z"/></g></g></g></svg>